<?xml version="1.0" standalone="no"?>
<!DOCTYPE svg PUBLIC "-//W3C//DTD SVG 20010904//EN"
 "http://www.w3.org/TR/2001/REC-SVG-20010904/DTD/svg10.dtd">
<svg version="1.0" xmlns="http://www.w3.org/2000/svg"
 width="2370.000000pt" height="1792.000000pt" viewBox="0 0 2370.000000 1792.000000"
 preserveAspectRatio="xMidYMid meet">

<g transform="translate(0.000000,1792.000000) scale(0.100000,-0.100000)"
fill="#000000" stroke="none">
<path d="M13043 14696 c-54 -13 -176 -71 -318 -150 -107 -60 -148 -69 -217
-45 -84 29 -113 25 -203 -28 -74 -44 -85 -48 -145 -48 -77 1 -120 21 -223 101
-80 62 -129 79 -211 70 -117 -12 -211 -70 -381 -236 -66 -64 -136 -126 -155
-137 -71 -42 -159 -63 -315 -74 -238 -16 -295 -26 -463 -85 -201 -70 -273 -84
-424 -84 -413 0 -862 -98 -1310 -286 -187 -79 -478 -228 -516 -265 -43 -42
-46 -92 -11 -160 26 -52 25 -95 -3 -112 -13 -8 -75 -19 -138 -25 -152 -14
-240 -42 -295 -93 -63 -58 -77 -96 -85 -224 -8 -121 -22 -162 -66 -185 -40
-22 -254 -19 -367 4 -48 10 -90 16 -93 13 -8 -7 100 -149 171 -225 l55 -60
-67 -13 c-42 -9 -129 -14 -228 -13 -141 1 -171 4 -247 26 -49 15 -88 22 -88
17 0 -16 208 -225 270 -270 33 -24 98 -65 145 -90 98 -53 99 -50 -20 -102
-164 -72 -299 -108 -482 -128 -157 -16 -361 1 -763 67 -147 24 -393 24 -480 1
-200 -54 -330 -137 -447 -282 -128 -161 -202 -347 -210 -530 -4 -95 -1 -123
21 -208 55 -214 179 -410 387 -612 63 -61 218 -193 345 -293 128 -100 274
-220 325 -267 52 -47 180 -161 284 -254 346 -306 406 -379 406 -495 0 -34 -7
-73 -20 -101 l-21 -47 37 -31 c164 -140 188 -184 203 -359 21 -242 69 -420
153 -566 108 -188 139 -275 182 -510 45 -250 103 -396 211 -526 64 -78 156
-144 332 -240 229 -124 243 -143 253 -327 8 -148 26 -218 72 -284 67 -98 181
-133 327 -101 41 9 104 22 140 30 88 20 263 38 283 30 10 -3 17 -11 17 -16 0
-19 -195 -203 -338 -321 -90 -74 -136 -117 -124 -117 11 0 100 12 198 27 242
36 452 38 568 5 93 -27 217 -89 263 -132 42 -39 53 -83 53 -206 0 -181 -55
-331 -157 -424 -96 -88 -215 -149 -643 -330 -140 -60 -295 -127 -343 -149 -49
-23 -93 -41 -97 -41 -8 0 -203 264 -332 450 -37 52 -125 174 -197 270 -72 96
-145 203 -162 237 l-31 62 7 135 c7 134 7 137 -19 190 -52 107 -551 625 -669
695 -140 82 -277 113 -413 91 -44 -7 -88 -13 -99 -14 -15 -1 -38 29 -97 124
-43 68 -78 129 -78 135 0 5 18 20 39 32 58 33 60 52 10 136 -72 121 -370 560
-406 598 -46 49 -100 63 -206 56 -113 -8 -225 -47 -510 -179 -358 -165 -1133
-625 -1697 -1007 -102 -68 -253 -170 -335 -226 -209 -141 -473 -330 -715 -513
-243 -184 -317 -243 -470 -378 -319 -281 -450 -451 -450 -587 0 -55 6 -69 91
-225 50 -92 104 -183 119 -202 15 -19 76 -108 135 -197 70 -107 113 -163 125
-163 9 0 37 14 61 32 l43 31 58 -64 c71 -78 138 -175 138 -200 0 -10 -30 -53
-66 -96 -87 -102 -137 -177 -182 -271 -35 -72 -37 -83 -37 -172 0 -130 33
-218 197 -540 163 -317 200 -383 255 -441 54 -58 110 -83 233 -104 65 -11 105
-24 125 -40 55 -41 151 -178 839 -1195 143 -212 298 -442 345 -512 l86 -127
48 -1 c26 0 47 2 47 5 0 2 -75 113 -167 247 -369 538 -656 971 -637 963 10 -4
58 -11 106 -14 l87 -6 77 -120 c42 -66 153 -238 245 -382 173 -270 252 -386
397 -580 l84 -113 384 0 c376 0 384 0 374 19 -5 11 -90 142 -188 293 -98 150
-227 352 -287 448 -60 96 -139 222 -175 280 -124 195 -252 411 -247 416 3 3
21 -14 40 -38 148 -178 271 -331 353 -436 53 -68 99 -121 103 -119 70 38 115
52 179 55 l72 4 16 -38 c11 -27 13 -46 7 -68 -9 -32 -27 -42 -136 -70 l-49
-12 146 -197 c137 -184 235 -327 322 -475 l37 -62 662 0 661 1 95 70 c52 39
98 75 103 79 5 5 -1 31 -15 63 l-24 54 -125 6 c-172 8 -270 37 -414 121 -81
47 -223 178 -267 246 -24 37 -42 52 -78 65 -61 23 -124 59 -167 97 -34 30 -84
113 -84 140 0 7 -22 32 -50 56 -27 23 -75 74 -107 112 -31 39 -63 70 -70 70
-7 0 -65 -16 -128 -35 -198 -60 -438 -76 -529 -36 -123 54 -231 161 -291 288
-30 63 -65 214 -65 283 0 88 46 214 120 330 29 45 30 50 20 95 -18 80 -14 212
9 299 12 44 19 81 17 84 -3 2 -18 0 -34 -6 -19 -6 -34 -6 -46 0 -24 13 -65 5
-159 -34 -70 -29 -81 -31 -112 -19 -30 10 -37 10 -57 -8 -13 -11 -34 -29 -48
-40 -14 -11 -19 -20 -12 -21 25 0 11 -28 -24 -45 -46 -22 -116 -16 -174 14
-23 12 -44 21 -45 19 -2 -2 32 -79 76 -172 43 -93 100 -224 126 -290 l46 -120
18 41 c11 25 29 48 47 57 33 17 46 44 65 137 16 75 44 122 87 144 73 38 130 3
130 -79 0 -73 -24 -112 -141 -226 -111 -108 -158 -144 -175 -132 -26 18 -288
332 -385 462 -39 52 -68 113 -75 160 -4 23 -13 48 -21 56 -27 27 -91 -7 -132
-69 -19 -28 -31 -37 -53 -37 -28 0 -28 0 -12 25 23 35 23 119 0 144 -21 23
-26 22 -127 -36 -42 -23 -81 -43 -87 -43 -8 0 -12 18 -12 48 l0 48 76 46 76
46 -41 24 c-50 29 -61 56 -20 50 16 -2 49 3 75 12 26 9 57 16 69 16 16 0 28
13 46 51 l23 51 -23 19 c-55 44 -233 67 -261 34 -20 -25 -15 -100 10 -142 l22
-38 -39 40 c-22 22 -42 47 -46 55 -3 10 -6 6 -7 -10 -3 -36 0 -51 16 -84 12
-26 12 -27 -3 -15 -15 12 -16 12 -10 -3 6 -16 0 -18 -45 -18 l-51 0 7 61 c3
34 6 73 6 86 0 13 4 21 10 18 5 -3 7 0 4 8 -5 15 44 82 54 72 3 -3 12 6 21 19
9 13 40 52 69 86 29 34 69 94 89 133 19 40 40 75 44 78 5 3 0 27 -12 54 -18
40 -20 55 -11 77 6 15 9 28 8 28 -1 0 -21 -9 -44 -20 -80 -39 -106 -22 -127
81 -8 41 -23 85 -33 99 -10 14 -49 41 -87 61 -79 41 -85 43 -85 28 0 -5 6 -7
13 -3 6 4 3 -3 -8 -16 -11 -13 -14 -20 -7 -16 17 10 15 -2 -3 -20 -22 -23 -18
-32 13 -27 23 3 24 2 7 -6 -11 -5 -48 -38 -82 -74 l-62 -66 -10 50 c-6 27 -18
63 -26 79 -14 27 -13 30 36 105 28 42 57 79 65 82 8 3 14 15 14 27 0 21 -4 21
-72 18 -62 -3 -77 -8 -100 -30 -36 -33 -35 -26 6 56 46 90 112 163 177 193
139 64 256 122 274 137 11 9 14 10 8 2 -17 -18 -17 -33 -1 -24 7 4 10 4 6 -1
-4 -4 -3 -14 2 -20 16 -20 -20 -55 -96 -95 -58 -30 -73 -42 -94 -83 -23 -45
-24 -49 -8 -61 10 -7 16 -15 13 -18 -3 -2 10 -21 27 -41 33 -37 33 -37 65 -21
57 29 112 85 155 157 52 90 213 255 257 263 21 5 33 15 42 38 17 45 102 185
112 186 12 0 83 -156 102 -227 10 -35 20 -63 24 -63 3 0 28 7 55 15 27 8 51
13 54 11 7 -7 -75 -55 -141 -83 -34 -15 -76 -37 -93 -49 l-32 -23 -5 21 c-3
12 -1 30 5 41 7 14 7 17 -1 13 -6 -4 -11 -2 -11 3 0 6 -8 11 -19 11 -10 0 -24
7 -31 15 -11 13 -8 14 21 10 l34 -5 -30 10 c-21 7 -33 6 -42 -3 -12 -12 -123
-219 -123 -229 0 -5 25 2 172 45 29 8 56 8 115 -3 154 -28 178 -18 238 100 19
36 43 79 54 95 29 42 27 55 -11 55 -25 0 -29 3 -18 10 8 5 23 7 32 4 10 -3 26
-1 35 5 10 6 14 11 9 11 -6 0 -2 6 8 13 28 21 6 53 -41 61 -65 12 -101 26
-108 44 -23 61 -23 190 1 305 l6 29 -31 -16 c-16 -9 -43 -16 -59 -16 -33 0
-49 26 -59 96 -7 54 -57 104 -103 104 -24 0 -33 -7 -49 -38 -11 -20 -20 -32
-21 -25 0 7 -9 10 -21 8 -20 -4 -21 -2 -15 48 11 80 70 167 113 167 19 0 99
-75 124 -116 11 -19 18 -41 15 -49 -4 -12 2 -11 32 4 20 11 45 22 54 25 13 4
18 15 16 43 0 21 4 49 11 62 16 28 132 191 137 191 5 0 44 -129 44 -145 0 -8
-29 -45 -65 -84 -57 -62 -65 -76 -65 -110 0 -38 0 -39 46 -46 26 -3 53 -9 60
-12 25 -9 32 -66 25 -203 -4 -74 -5 -137 -3 -140 2 -2 7 2 12 9 6 10 21 12 59
7 48 -6 51 -6 66 23 22 44 19 148 -10 286 -14 66 -28 161 -32 210 -7 108 1
120 81 121 l51 0 3 37 c4 43 40 77 82 77 16 0 57 -20 99 -47 67 -44 71 -49 66
-78 -13 -76 41 -103 207 -104 160 -2 225 22 241 87 7 28 -11 82 -26 82 -7 0
-3 7 8 16 50 37 95 88 95 109 0 29 -36 61 -85 74 -65 17 -287 51 -335 51 l-45
0 45 21 c52 23 86 53 106 91 30 58 -13 84 -113 67 -36 -6 -108 -9 -159 -7 -52
3 -94 3 -94 1 0 -21 50 -90 94 -131 31 -28 56 -58 56 -66 0 -23 -66 -93 -95
-100 -51 -13 -116 44 -188 165 -20 35 -37 71 -37 81 0 18 29 38 240 171 91 57
106 64 114 49 16 -32 40 -42 95 -42 70 0 168 23 188 43 23 23 8 65 -39 110
-22 21 -39 39 -37 41 16 12 98 65 116 74 20 11 23 9 37 -42 17 -59 27 -66 90
-66 l42 0 17 53 c9 29 34 82 56 117 l39 65 -32 5 -31 6 32 17 c27 14 32 15 27
2 -9 -23 10 -18 37 11 l24 26 7 -34 c4 -18 5 -95 2 -171 l-5 -137 29 0 c55 0
70 25 77 125 7 91 20 125 58 149 13 8 22 6 39 -12 19 -19 24 -35 26 -105 l4
-83 88 1 c80 0 92 3 117 25 15 14 54 43 85 64 66 44 88 73 88 116 0 35 -38 80
-69 80 -12 0 -23 11 -30 31 -19 54 -15 69 19 69 45 0 79 -21 220 -134 139
-112 260 -196 282 -196 8 0 19 5 26 12 10 10 30 -6 95 -70 74 -74 87 -82 110
-77 15 4 27 12 27 18 0 6 -16 39 -35 74 -19 35 -35 70 -35 78 0 26 40 38 102
31 35 -3 68 -2 79 4 22 13 26 50 4 50 -8 0 -15 4 -15 10 0 13 34 30 63 30 20
0 24 4 20 20 -4 15 -9 18 -18 10 -9 -8 -15 -8 -20 0 -10 16 3 29 25 23 15 -4
19 -2 14 10 -4 12 -1 14 15 10 11 -3 18 -10 14 -16 -3 -6 -1 -7 5 -3 7 4 12
14 12 22 0 8 6 14 13 14 8 0 14 7 14 15 0 8 -3 15 -6 15 -4 0 -12 9 -19 21
-22 35 72 -35 162 -120 151 -144 458 -484 479 -530 17 -39 18 -55 11 -120 -18
-172 -6 -224 80 -344 28 -39 140 -193 247 -342 108 -148 235 -326 284 -395 89
-127 221 -308 394 -545 52 -71 179 -247 281 -390 273 -381 625 -869 685 -951
29 -39 92 -126 141 -195 170 -239 830 -1150 873 -1203 17 -21 31 -42 31 -47 0
-16 -93 -79 -126 -85 -62 -12 -103 4 -158 59 -66 67 -102 143 -166 352 -56
183 -98 275 -140 305 -14 10 -49 27 -78 38 -72 28 -128 63 -192 121 l-55 50 0
108 c0 82 -4 115 -17 138 -9 17 -71 89 -138 160 -127 135 -441 512 -500 600
-18 28 -42 60 -54 73 -17 19 -21 37 -21 95 0 61 -4 79 -29 122 -27 46 -170
195 -187 195 -4 0 -2 -15 3 -34 7 -22 7 -46 1 -72 l-10 -39 -21 46 c-28 61
-65 99 -96 99 -24 0 -66 40 -66 63 0 5 -27 54 -60 108 -57 92 -112 153 -159
179 -24 12 -29 66 -8 92 11 14 19 14 72 2 33 -7 77 -16 98 -20 l37 -7 0 49 c0
74 -39 123 -112 144 -35 10 -59 6 -130 -25 -10 -4 -18 -3 -18 3 0 9 -20 39
-139 213 -108 158 -337 421 -317 365 6 -17 18 -69 45 -188 6 -30 5 -35 -7 -30
-10 3 -13 1 -8 -6 4 -7 3 -12 -2 -12 -6 0 -12 7 -16 15 -3 8 -16 15 -30 15
-38 0 -97 76 -160 205 -61 126 -75 137 -139 116 -58 -20 -71 -41 -65 -113 3
-35 13 -88 23 -120 l18 -56 -29 -26 c-49 -43 -149 -31 -212 26 -32 28 -42 27
-42 -5 0 -13 5 -17 16 -13 9 3 12 2 9 -5 -9 -14 26 -51 42 -44 8 2 11 0 8 -5
-3 -6 -2 -10 2 -10 5 0 18 -7 29 -16 10 -8 13 -12 5 -8 -23 12 -7 -18 19 -35
20 -14 23 -14 15 -1 -8 13 -7 13 8 1 13 -11 17 -11 17 -1 0 8 3 10 6 7 9 -9
-22 -54 -47 -67 -24 -13 -69 -5 -69 11 0 7 6 6 18 -2 15 -13 16 -12 4 3 -8 10
-23 16 -35 15 -19 -2 -50 42 -99 143 -8 16 -13 85 -14 200 l-1 175 -31 49
c-41 64 -31 81 41 72 30 -4 46 -3 43 3 -3 5 0 12 6 14 7 3 3 6 -8 6 -29 1 -49
25 -32 38 28 22 38 24 38 9 0 -10 -6 -13 -17 -9 -10 3 -15 3 -11 -1 3 -4 13
-8 21 -10 8 -1 22 -8 30 -14 12 -10 17 -10 23 -1 4 7 3 9 -4 5 -6 -3 -16 2
-21 13 -17 31 -13 43 12 36 16 -4 18 -4 8 3 -11 8 -9 12 8 22 52 27 78 166 49
262 -16 53 -68 112 -90 103 -10 -4 -32 -37 -49 -74 -62 -133 -61 -132 -132
-172 -38 -22 -70 -39 -71 -39 -1 0 0 14 2 32 l5 32 -31 -35 c-62 -71 -142
-358 -142 -510 0 -31 -11 -116 -25 -189 -14 -73 -25 -134 -25 -137 0 -6 118
76 125 87 14 23 21 5 34 -82 21 -143 24 -201 12 -230 -9 -24 -16 -28 -52 -28
-36 0 -47 6 -80 42 -22 22 -44 56 -51 75 -21 58 -28 45 -52 -102 -7 -44 -11
-87 -8 -95 3 -8 23 -37 46 -64 l40 -48 -17 -48 c-9 -26 -17 -55 -17 -65 0 -9
23 -37 50 -62 110 -99 159 -271 167 -595 l6 -198 54 -67 c30 -38 90 -122 135
-188 l81 -120 56 -16 c31 -8 70 -23 88 -32 68 -36 143 -162 143 -241 0 -30 6
-38 49 -65 104 -67 209 -212 257 -353 72 -212 66 -422 -21 -672 -19 -55 -33
-102 -31 -104 7 -7 60 25 154 93 98 70 154 99 212 110 29 5 42 17 73 65 67
102 149 165 251 191 33 8 46 16 46 29 0 10 12 33 26 50 23 27 25 34 15 56 -6
14 -11 34 -11 45 0 12 -20 43 -44 71 -24 28 -57 74 -72 102 -15 28 -71 102
-123 165 -143 169 -371 473 -371 495 0 22 -23 61 -108 181 -35 50 -75 112 -89
139 -28 54 -138 220 -156 234 -7 5 -25 13 -40 18 -24 8 -33 21 -51 74 -13 36
-37 92 -53 125 -25 48 -63 154 -63 172 0 2 27 -29 60 -69 152 -183 233 -285
247 -313 26 -48 87 -128 238 -310 181 -218 308 -379 424 -535 52 -69 95 -127
97 -129 1 -1 18 9 37 23 18 14 48 31 64 37 38 13 45 42 42 166 -2 80 0 87 22
104 13 10 36 19 51 19 15 0 37 4 50 9 31 12 66 -3 80 -34 7 -16 24 -29 47 -35
20 -5 48 -18 64 -28 23 -16 35 -17 82 -9 68 13 153 -4 182 -36 57 -62 65 -125
33 -247 -20 -74 -20 -74 0 -152 34 -131 23 -222 -32 -264 l-25 -18 43 -81 c23
-44 50 -106 59 -137 16 -55 17 -57 42 -47 75 28 113 80 116 159 1 37 6 50 17
50 24 0 65 -26 63 -38 -2 -7 3 -11 10 -9 6 1 11 -4 10 -10 -2 -7 2 -12 8 -10
5 1 23 -20 39 -48 31 -52 38 -81 18 -69 -7 4 -8 3 -4 -5 4 -6 11 -9 16 -6 5 3
12 -6 16 -20 8 -30 -10 -55 -40 -55 -46 0 -100 -24 -177 -76 -44 -30 -85 -51
-91 -48 -6 4 -8 3 -5 -3 4 -6 -5 -15 -18 -21 -13 -6 -34 -30 -46 -53 -25 -51
-99 -131 -155 -170 -23 -16 -72 -38 -108 -50 -56 -19 -72 -29 -96 -63 -39 -58
-114 -124 -163 -146 -23 -10 -71 -22 -105 -26 -46 -5 -65 -11 -68 -23 -27 -94
-103 -180 -203 -228 -48 -24 -68 -28 -143 -28 -48 0 -88 -2 -88 -5 1 -3 7 -16
15 -30 23 -40 18 -64 -26 -114 l-41 -46 584 0 584 0 17 29 c38 65 190 151 266
151 33 0 48 -8 94 -50 30 -27 67 -54 83 -60 28 -11 172 -44 264 -60 25 -5 188
-9 363 -9 317 -1 317 -1 317 20 0 12 12 48 26 80 22 48 31 59 50 59 30 0 39
-31 31 -106 l-6 -54 270 0 c236 0 269 2 269 15 0 39 -34 175 -61 244 -76 193
-177 355 -445 721 -289 394 -1043 1431 -1352 1860 -113 157 -364 504 -558 771
-195 268 -354 491 -354 496 0 13 213 110 479 219 262 107 467 209 556 277 86
65 163 169 192 259 29 87 47 228 39 307 l-6 65 86 -84 c47 -47 143 -152 213
-235 130 -152 594 -729 818 -1017 439 -562 715 -841 980 -990 243 -136 547
-232 861 -272 143 -18 436 -21 580 -5 335 36 630 137 875 300 245 163 422 342
949 956 179 208 423 486 543 618 275 303 818 845 953 953 56 45 104 82 107 82
2 0 -2 -17 -8 -37 -6 -22 -11 -102 -11 -183 0 -126 4 -158 27 -244 89 -323
250 -449 818 -637 151 -50 312 -107 357 -125 116 -48 222 -102 222 -114 0 -16
-1514 -2292 -1719 -2585 -71 -102 -584 -863 -782 -1160 -118 -177 -187 -299
-205 -365 -9 -30 -18 -63 -20 -72 -5 -17 18 -18 380 -18 l386 0 0 23 c0 43 30
126 57 158 l27 31 118 -4 c64 -2 120 -7 124 -11 3 -3 -17 -49 -45 -101 l-51
-96 100 0 100 0 -6 25 c-3 14 -3 37 0 51 l7 25 150 -2 151 -2 28 29 c73 74 16
164 -104 164 -37 0 -39 1 -24 17 16 15 14 18 -26 44 -23 16 -48 40 -56 53 -12
23 -10 30 20 79 18 30 99 148 181 263 81 115 207 295 279 399 73 105 210 300
305 435 96 135 233 333 306 440 72 107 158 231 190 275 33 44 119 167 192 273
253 368 501 721 505 717 11 -10 -360 -698 -464 -862 -18 -28 -65 -109 -105
-180 -105 -185 -176 -297 -458 -718 -107 -159 -234 -347 -282 -416 l-88 -126
25 -63 c28 -67 43 -153 44 -236 0 -58 9 -114 19 -114 3 0 53 68 109 150 57 83
110 150 117 150 7 0 57 -26 112 -58 54 -32 196 -114 315 -181 191 -108 219
-121 236 -110 17 10 25 10 46 -4 14 -10 28 -28 32 -40 4 -17 27 -34 85 -63 86
-42 95 -41 132 8 18 24 18 25 -22 124 -49 123 -64 200 -63 334 1 158 48 312
131 433 29 42 30 49 28 138 -1 84 1 100 26 154 15 33 48 80 72 105 40 41 46
53 59 125 10 51 30 108 56 158 l40 79 -90 101 c-118 133 -184 229 -204 299
-20 68 -23 225 -6 288 48 176 172 325 335 401 90 42 229 58 335 37 l75 -14 87
43 c99 49 223 87 316 98 l63 7 -55 55 c-31 31 -56 61 -56 68 0 6 -9 20 -20 30
-25 22 -36 79 -21 111 8 18 18 24 43 24 28 0 47 -15 143 -112 60 -62 126 -132
145 -156 33 -41 39 -44 87 -45 29 -1 53 -5 53 -9 0 -5 6 -8 13 -8 14 0 169
-77 225 -112 33 -20 49 -22 172 -23 130 0 137 -1 195 -30 91 -46 85 -56 -50
-89 -63 -15 -115 -30 -115 -32 0 -1 21 -34 46 -72 l46 -69 101 -6 c56 -4 127
-14 157 -23 180 -53 336 -191 395 -347 10 -26 19 -47 20 -47 1 0 26 13 56 29
45 24 55 33 57 59 3 28 5 30 36 25 30 -5 37 0 85 56 55 63 58 81 13 82 -21 0
-14 5 28 20 30 11 73 24 95 29 61 13 128 37 208 76 56 27 74 40 79 61 9 32 -8
62 -52 94 -19 15 -26 26 -21 33 12 14 70 253 78 316 l6 48 -39 11 c-22 6 -63
11 -91 11 l-53 0 0 -48 c0 -40 -5 -53 -27 -74 -44 -40 -111 -82 -213 -133
l-95 -48 61 -16 c54 -16 134 -65 134 -83 0 -23 -64 -3 -135 43 -44 29 -154
100 -245 159 -246 160 -535 340 -810 504 -135 81 -253 156 -262 167 -11 12
-18 38 -18 60 l0 39 66 0 c36 0 74 -5 85 -10 17 -10 19 -7 19 23 0 20 -10 49
-24 70 l-25 36 22 4 c12 2 -4 5 -36 6 -46 1 -66 -4 -100 -25 -23 -15 -43 -28
-45 -29 -8 -7 -8 -56 -1 -61 5 -3 9 -11 9 -17 0 -8 -3 -8 -9 1 -6 10 -10 7
-13 -12 -4 -19 0 -31 16 -41 31 -23 8 -18 -30 6 -24 14 -34 28 -34 45 0 28 -1
28 -34 12 -22 -9 -34 -7 -88 22 -91 47 -158 92 -153 100 3 4 -3 7 -12 6 -12
-1 -18 7 -19 22 -1 17 2 20 11 12 10 -8 15 -8 21 1 5 8 3 10 -7 5 -8 -4 -5 0
6 9 11 9 20 20 20 25 0 4 4 12 9 17 5 5 6 3 2 -4 -4 -8 -1 -13 7 -13 8 0 17 9
20 20 3 13 10 18 21 14 9 -3 16 -10 16 -15 0 -4 7 -6 15 -3 8 4 15 2 15 -4 0
-6 8 -9 18 -7 9 2 22 4 29 4 14 1 33 54 33 93 0 18 -10 39 -26 55 -23 23 -31
25 -74 20 -27 -3 -70 -17 -97 -31 -54 -27 -127 -99 -138 -134 l-7 -23 -66 37
c-37 21 -89 51 -117 69 -76 48 -114 59 -136 39 -36 -32 -34 -75 6 -153 58
-112 51 -156 -31 -192 -29 -13 -52 -35 -79 -76 -108 -163 -328 -433 -342 -419
-6 6 22 99 58 192 17 43 65 144 107 223 59 109 89 154 127 190 57 52 74 74 51
65 -16 -6 -201 51 -223 69 -18 13 -16 42 2 57 14 12 62 14 159 7 24 -2 35 5
53 32 13 19 23 43 23 54 0 11 -31 51 -70 90 -61 61 -71 76 -68 102 3 26 7 30
30 28 15 -1 77 -36 140 -78 103 -70 113 -75 125 -59 25 34 26 80 3 147 -27 80
-20 98 47 123 27 9 64 29 83 43 31 23 46 26 131 29 108 4 96 11 170 -96 40
-58 59 -54 131 33 60 74 66 85 45 85 -23 0 -48 36 -49 69 -1 23 8 41 33 67
l34 35 -52 -27 c-36 -18 -53 -33 -53 -46 0 -14 -5 -17 -22 -13 -137 32 -163
34 -173 18 -36 -56 -28 -54 -186 -45 -80 5 -151 12 -157 16 -20 12 12 59 58
85 29 16 65 25 111 29 l69 5 12 38 c6 22 13 39 15 39 2 0 25 -11 51 -24 81
-40 116 -48 160 -36 47 12 142 93 142 121 0 27 -66 67 -132 81 l-57 12 45 49
c24 27 44 56 44 63 0 18 41 34 85 34 26 0 43 -9 70 -35 19 -20 35 -42 35 -51
0 -14 15 -8 59 23 2 1 -11 23 -28 49 -17 26 -31 53 -31 59 0 39 83 50 155 19
21 -8 81 -43 134 -77 53 -33 130 -81 171 -105 l75 -43 -110 6 c-60 4 -131 13
-157 21 -51 16 -88 12 -88 -11 0 -8 -9 -17 -20 -20 -29 -9 -25 -26 18 -68 39
-39 118 -75 217 -101 33 -8 122 -42 199 -75 131 -57 268 -101 364 -116 38 -6
42 -9 36 -28 -4 -12 -17 -38 -29 -57 -13 -19 -42 -68 -65 -108 -46 -81 -43
-81 -133 -35 -50 25 -122 91 -192 176 -37 45 -41 47 -89 46 -35 0 -45 -3 -32
-8 19 -7 19 -8 -3 -14 -20 -5 -17 -10 43 -69 61 -58 67 -69 89 -146 13 -45 32
-91 42 -102 35 -39 115 -67 210 -74 50 -3 107 -9 129 -12 27 -5 37 -3 32 5 -4
6 -3 11 2 11 5 0 14 25 21 55 10 43 23 67 62 110 66 71 112 99 179 106 l55 6
-32 14 c-29 12 -33 18 -33 50 0 22 7 42 18 51 18 17 92 29 92 16 0 -4 12 -8
28 -8 19 0 23 3 13 9 -8 5 -10 14 -6 21 6 9 4 11 -5 5 -7 -4 -30 -8 -52 -9
l-40 -2 35 18 c41 20 49 39 47 106 -3 71 -3 71 34 89 32 15 36 15 77 -8 56
-31 60 -57 18 -135 -17 -32 -38 -77 -45 -98 l-14 -40 40 -41 c23 -23 42 -49
44 -58 1 -8 8 -23 16 -32 24 -29 -70 -105 -217 -175 -117 -56 -123 -60 -123
-89 0 -41 40 -71 94 -71 63 0 239 92 356 184 53 42 105 76 117 76 25 0 63 -43
63 -71 0 -16 8 -19 44 -19 24 0 52 -3 61 -6 16 -6 45 -54 45 -73 0 -6 -25 -27
-55 -47 -30 -20 -55 -40 -55 -44 0 -18 41 -41 88 -50 151 -28 221 -106 243
-269 11 -81 3 -121 -24 -121 -14 0 -61 72 -72 110 -11 37 -123 246 -139 260
-18 14 -79 -11 -101 -43 -12 -18 -11 -25 10 -68 14 -26 38 -85 55 -131 17 -45
41 -98 54 -118 13 -19 35 -57 50 -83 l27 -48 34 42 33 42 85 -2 c75 -2 87 0
105 19 29 31 33 72 17 153 -51 242 -91 313 -194 343 -31 9 -69 23 -85 31 -25
13 -28 18 -22 51 10 63 65 161 127 224 l58 60 143 -98 c187 -128 224 -157 207
-162 -25 -8 -49 -35 -49 -54 0 -54 113 -198 155 -198 28 0 51 34 68 98 l12 49
87 -61 86 -61 -27 -16 c-35 -21 -71 -66 -71 -89 0 -10 9 -29 21 -44 27 -35 84
-35 186 -1 l75 26 32 -25 c43 -32 43 -60 1 -84 -38 -23 -180 -77 -244 -93
l-44 -11 44 -38 c26 -23 55 -39 70 -40 14 0 66 20 115 44 l90 44 23 -34 c26
-38 27 -37 -42 -107 -38 -38 -77 -112 -77 -146 0 -9 22 -34 49 -56 28 -21 58
-54 68 -72 12 -23 22 -31 33 -27 37 16 62 15 115 -5 30 -12 69 -21 86 -21 36
0 53 -35 46 -93 -7 -51 -23 -67 -65 -67 -46 0 -132 64 -168 125 -26 44 -27 45
-41 25 -18 -25 -61 -26 -125 -3 -44 16 -49 16 -87 -2 -41 -18 -48 -31 -66
-110 -3 -16 -22 -50 -41 -76 -52 -72 -74 -127 -74 -192 0 -49 -5 -64 -30 -95
-30 -39 -54 -119 -44 -147 9 -23 51 -37 74 -25 11 6 57 54 103 108 46 53 103
114 126 135 25 23 40 44 37 53 -7 18 27 36 51 27 10 -4 37 -19 61 -34 24 -15
66 -30 95 -34 66 -9 102 -42 122 -109 21 -70 19 -128 -7 -182 l-23 -46 24 -19
c13 -10 27 -17 31 -14 5 3 26 39 46 81 21 41 44 79 50 85 22 18 49 -7 88 -81
20 -38 44 -70 51 -70 8 0 29 -13 47 -29 28 -25 32 -35 36 -93 5 -78 -17 -163
-53 -206 -27 -32 -102 -72 -136 -72 -18 0 -20 4 -14 23 4 12 10 59 12 103 6
99 -8 132 -69 164 -24 12 -46 27 -50 34 -4 6 -8 7 -8 1 0 -5 4 -16 9 -24 6
-10 5 -24 -4 -41 -7 -14 -16 -42 -20 -62 -5 -26 -11 -35 -23 -33 -10 1 -16 8
-14 15 1 6 -2 9 -8 5 -6 -3 -8 -10 -5 -15 6 -10 -35 -18 -103 -22 -41 -3 -45
-6 -60 -43 -8 -22 -17 -74 -19 -117 -4 -67 -1 -83 22 -132 l27 -57 29 44 c48
74 152 177 176 177 83 0 29 -158 -99 -292 -76 -78 -103 -98 -140 -98 -16 0
-28 -4 -28 -9 0 -8 -16 -8 -78 1 -18 2 36 56 80 79 21 10 48 19 61 19 22 0 47
16 47 31 0 3 -26 7 -57 8 -70 2 -252 27 -261 35 -3 4 7 19 21 34 35 36 34 46
-5 65 -150 70 -416 48 -764 -64 -110 -35 -138 -60 -124 -108 5 -19 16 -41 24
-50 9 -9 13 -26 10 -36 -6 -22 -56 -55 -82 -55 -9 0 -56 -9 -103 -22 -75 -19
-92 -20 -127 -10 -81 24 -92 64 -38 133 19 24 34 45 32 47 -2 1 -48 -6 -102
-17 -93 -19 -113 -29 -128 -65 -4 -10 -21 5 -28 26 -2 5 -30 5 -63 0 l-60 -7
-11 -65 c-17 -101 -31 -143 -65 -191 -37 -52 -88 -98 -109 -99 -8 0 -51 -26
-96 -58 -92 -66 -206 -127 -312 -167 -43 -16 -78 -36 -86 -49 -7 -11 -62 -104
-121 -205 l-108 -185 -9 -100 c-12 -133 -37 -185 -129 -269 -65 -59 -71 -68
-89 -136 -26 -93 -56 -152 -113 -221 -39 -47 -134 -134 -202 -184 -18 -14 15
-15 301 -16 l322 0 103 163 c56 89 177 277 268 417 90 140 176 277 190 305 14
27 78 105 141 174 63 68 127 138 142 155 15 17 27 28 28 24 0 -12 -235 -432
-278 -496 -21 -31 -76 -124 -122 -207 -45 -82 -100 -179 -121 -215 -21 -36
-45 -81 -53 -100 -8 -19 -29 -62 -48 -95 -19 -33 -37 -69 -41 -79 -6 -16 -5
-17 7 -7 10 9 20 9 34 2 13 -7 22 -7 30 1 15 15 15 3 2 -23 -11 -19 -4 -19
567 -17 456 2 577 6 576 16 -4 16 12 15 26 -1 14 -18 56 -15 57 4 1 8 2 20 3
27 0 7 7 10 14 7 6 -4 4 0 -6 8 -10 9 -15 21 -11 31 7 19 20 21 27 4 3 -7 6
-4 6 7 1 17 3 17 11 5 7 -12 10 -8 10 15 0 23 3 26 10 15 7 -12 9 -10 7 8 -1
14 -5 18 -11 12 -15 -15 -23 -12 -23 8 0 32 -3 42 -13 42 -6 0 -6 -9 0 -25 6
-15 6 -26 0 -30 -6 -4 -10 -1 -10 5 0 6 -6 8 -12 4 -10 -6 -10 -4 0 7 14 16
16 33 2 24 -6 -3 -7 1 -4 9 3 9 1 16 -5 16 -6 0 -11 -13 -11 -30 0 -16 -5 -30
-10 -30 -6 0 -10 8 -8 18 2 13 -3 16 -24 14 -19 -2 -28 2 -28 12 0 7 -9 24
-21 37 -11 13 -18 18 -14 12 4 -9 -3 -13 -22 -13 -22 0 -25 2 -13 10 8 5 10
10 4 10 -6 0 -14 -3 -17 -7 -11 -10 -56 -10 -54 1 1 5 -6 12 -16 14 -15 3 -18
-1 -13 -20 4 -15 1 -13 -8 7 -27 59 -27 69 -3 81 21 9 26 7 40 -18 23 -41 59
-52 105 -32 20 9 48 18 62 20 14 3 27 9 28 15 2 5 8 7 13 3 5 -3 9 -1 9 5 0
16 104 81 111 69 4 -7 8 -5 11 3 7 20 16 9 21 -25 2 -16 14 -39 27 -53 l23
-24 -27 5 c-34 6 -33 -6 2 -25 49 -28 102 -6 102 41 0 9 6 17 14 17 8 0 -12
-43 -53 -111 -37 -61 -82 -137 -100 -169 l-33 -58 45 3 46 3 223 360 c434 699
724 1157 773 1223 57 77 105 106 191 117 53 6 62 12 114 63 43 44 72 88 122
187 82 161 178 385 223 522 34 101 35 107 35 268 0 182 0 180 -73 302 -37 62
-48 88 -43 107 3 14 31 62 61 107 l55 82 0 109 0 108 -102 81 c-87 69 -505
383 -763 574 -293 216 -912 623 -1775 1168 -411 259 -917 548 -1397 797 l-122
63 20 38 c10 21 74 120 142 221 292 434 270 408 352 408 122 0 336 -75 626
-221 884 -442 1988 -1153 2894 -1862 l120 -94 3 46 c4 54 9 48 -183 194 -632
481 -1429 1019 -2025 1367 -69 40 -161 94 -206 120 -130 76 -489 264 -655 344
-271 130 -424 179 -561 180 -127 1 -139 -9 -321 -279 -195 -290 -298 -463
-295 -495 3 -22 36 -47 82 -63 5 -2 1 -18 -9 -37 -33 -66 -148 -250 -155 -250
-4 0 -88 21 -186 46 -143 37 -197 47 -270 48 -85 1 -94 -1 -165 -36 -40 -20
-98 -58 -128 -84 -70 -62 -212 -220 -336 -375 -55 -68 -131 -160 -169 -204
-122 -142 -140 -221 -91 -400 29 -105 31 -135 9 -177 -33 -65 -268 -408 -278
-408 -6 0 -31 12 -55 25 -84 49 -207 97 -535 212 -358 124 -463 172 -580 266
-113 89 -172 193 -211 371 -24 109 -17 314 15 403 20 56 25 63 68 81 83 35
151 45 289 40 l130 -4 -42 62 c-74 107 -82 177 -31 254 56 85 152 114 426 130
359 21 542 74 656 187 44 45 89 125 100 179 l6 30 -99 17 c-98 16 -241 59
-335 99 l-50 21 26 14 c88 46 367 131 716 217 241 59 477 131 575 175 62 28
240 139 234 146 -5 4 -212 -27 -394 -61 -131 -24 -175 -28 -345 -28 -149 0
-206 4 -240 16 -25 8 -45 21 -45 27 0 21 105 78 230 126 102 39 272 90 623
188 40 11 69 24 65 28 -4 4 -85 21 -179 38 -93 17 -208 41 -255 52 -87 21
-219 75 -219 91 0 13 75 43 298 119 193 65 267 97 322 139 32 24 32 24 -163
45 -87 10 -155 21 -150 25 4 4 33 15 63 25 86 28 244 92 323 131 72 36 157 98
157 114 0 22 -34 41 -64 36 -17 -3 -105 -10 -196 -17 -186 -13 -321 -3 -431
30 -120 37 -124 25 81 217 187 173 360 360 458 494 30 41 66 87 80 102 14 15
24 30 21 32 -2 2 -94 -38 -205 -90 -110 -52 -236 -103 -279 -114 -72 -18 -205
-28 -205 -14 0 3 13 22 29 42 17 20 36 58 42 84 11 41 10 56 -9 126 -26 94
-27 137 -7 217 23 89 65 171 133 260 78 103 131 154 272 262 104 81 160 138
160 167 0 7 -33 10 -104 8 -85 -3 -106 0 -120 13 -45 45 9 175 154 377 239
332 359 837 329 1388 -19 356 -87 673 -190 886 -88 179 -232 298 -431 354
-108 31 -210 34 -407 16 -205 -20 -295 -35 -491 -81 -148 -35 -261 -57 -266
-52 -1 1 10 48 26 104 38 136 41 167 14 171 -11 2 -55 -11 -98 -28 -43 -17
-80 -30 -82 -28 -2 2 17 31 42 64 46 61 97 158 108 207 7 28 5 28 -73 -27
-119 -84 -201 -117 -201 -81 0 9 32 111 70 227 39 116 69 212 67 214 -2 2 -48
-30 -103 -72 -106 -81 -253 -159 -366 -192 -38 -11 -68 -19 -68 -19 0 1 9 31
20 65 18 58 27 152 15 152 -3 0 -27 -14 -54 -30 -67 -42 -149 -68 -261 -85
-131 -20 -184 -20 -176 1 12 31 39 184 34 190 -3 3 -38 -11 -77 -31 -117 -60
-245 -70 -287 -24 -17 20 -19 40 -19 250 0 217 -1 229 -21 249 l-20 21 -83
-56 c-103 -71 -155 -95 -207 -95 -50 0 -67 17 -124 127 -73 143 -129 172 -257
134 -125 -36 -202 -27 -314 40 -73 44 -100 47 -193 23 -93 -24 -144 -16 -212
37 -121 95 -137 97 -289 44 -114 -40 -211 -46 -286 -20 -89 32 -124 35 -201
21 -80 -15 -83 -14 -147 26 -55 34 -96 36 -196 7 -93 -27 -126 -21 -206 38
-103 75 -135 83 -236 59z m-1210 -193 c18 -9 66 -40 108 -69 86 -61 115 -74
183 -83 l49 -6 22 -80 c11 -44 34 -109 50 -145 32 -71 135 -250 144 -250 3 0
51 72 106 159 l99 160 28 -52 c32 -60 87 -113 125 -120 60 -11 126 42 201 163
l47 75 7 -90 c23 -286 67 -437 140 -476 37 -20 85 5 308 155 118 80 215 144
216 143 1 -1 -11 -56 -27 -121 -16 -66 -27 -121 -25 -123 2 -2 28 6 59 17 100
38 235 148 330 270 l27 35 0 -33 c0 -18 -4 -108 -9 -200 -6 -92 -12 -234 -16
-317 l-6 -150 111 165 c60 91 110 161 110 155 0 -5 -11 -55 -24 -110 -38 -153
-57 -295 -63 -465 l-6 -154 34 28 c110 92 306 277 400 378 l108 116 10 -31
c35 -107 37 -261 6 -384 -23 -88 -88 -211 -147 -278 l-53 -59 60 33 c259 145
494 432 617 751 l29 75 -6 -203 c-3 -112 -8 -258 -12 -325 l-6 -121 34 24 34
24 -32 -37 c-18 -21 -33 -48 -33 -60 0 -12 -7 -132 -15 -267 -8 -135 -15 -251
-15 -257 0 -16 55 45 156 172 109 136 140 180 223 319 39 65 71 114 71 109 0
-5 -9 -54 -21 -109 -28 -133 -69 -356 -69 -373 0 -8 46 30 103 85 130 127 189
176 310 258 85 57 244 146 263 146 3 0 -28 -36 -70 -81 -126 -134 -240 -321
-297 -488 -11 -30 -18 -56 -16 -57 1 -2 29 10 62 27 33 16 89 35 124 41 64 12
64 12 86 -16 17 -21 43 -34 109 -52 202 -57 302 -138 441 -353 87 -135 250
-489 448 -976 36 -88 72 -174 79 -191 12 -28 13 -19 15 95 2 198 56 378 176
588 91 160 157 247 338 447 169 189 293 344 262 331 -65 -27 -294 -64 -292
-47 0 4 35 24 77 45 42 21 115 60 162 87 l85 50 -75 0 c-280 0 -607 -91 -957
-266 -68 -34 -123 -58 -123 -54 0 15 199 308 261 385 36 45 69 86 73 93 8 13
-2 10 -87 -27 -99 -43 -287 -78 -287 -53 0 9 292 204 347 231 23 11 43 17 45
12 2 -5 48 6 102 24 58 20 130 36 175 40 223 18 295 30 537 89 143 36 297 70
343 76 267 36 545 -98 651 -314 78 -158 105 -327 104 -661 0 -320 -27 -548
-110 -918 -89 -402 -180 -620 -448 -1071 -235 -397 -290 -518 -290 -641 0
-115 59 -211 146 -237 56 -16 51 -49 -18 -135 -59 -72 -38 -110 68 -123 112
-13 257 15 381 75 28 14 53 25 55 25 14 0 -231 -250 -395 -403 -106 -99 -195
-187 -198 -195 -16 -42 88 -107 223 -139 61 -14 119 -18 275 -18 l198 0 -43
-18 c-23 -10 -124 -48 -225 -85 -101 -37 -196 -76 -210 -88 -23 -18 -24 -22
-12 -41 19 -31 73 -52 163 -66 l77 -12 -133 -44 c-271 -88 -358 -133 -358
-186 0 -70 186 -161 393 -191 26 -3 46 -8 44 -11 -3 -2 -62 -19 -133 -38 -172
-45 -289 -86 -409 -145 -253 -122 -217 -228 87 -261 93 -10 231 -4 373 18 94
14 8 -12 -302 -91 -405 -104 -476 -124 -627 -176 -152 -53 -214 -84 -229 -117
-10 -24 -9 -28 25 -57 44 -38 187 -95 328 -131 58 -15 111 -29 118 -31 29 -8
-47 -104 -118 -149 -97 -61 -240 -91 -500 -106 -102 -6 -220 -16 -262 -24
-140 -24 -245 -90 -287 -180 -25 -54 -28 -149 -6 -202 8 -19 15 -37 15 -39 0
-2 -35 -4 -78 -4 -128 0 -251 -44 -395 -142 -266 -181 -961 -891 -1562 -1599
-543 -638 -732 -830 -990 -1004 -296 -199 -655 -296 -1095 -295 -350 0 -653
60 -958 191 -356 153 -569 348 -1076 988 -520 657 -646 812 -1012 1244 -241
285 -493 428 -779 444 -98 5 -286 -8 -339 -24 -11 -3 30 38 90 91 187 165 235
252 167 306 -26 21 -35 22 -148 17 -76 -4 -173 -17 -264 -36 -211 -45 -261
-40 -328 30 -47 50 -63 107 -72 254 -9 154 -25 197 -97 266 -27 26 -107 79
-178 118 -176 98 -230 137 -308 219 -116 123 -170 247 -213 492 -47 270 -74
350 -167 508 -84 142 -138 282 -108 282 6 0 8 5 5 10 -4 6 -11 7 -17 4 -7 -4
-8 -2 -4 5 4 6 3 18 -3 25 -16 19 -30 105 -41 243 -5 68 -18 147 -29 180 -10
32 -22 87 -25 123 -7 74 -37 143 -147 338 -151 267 -234 386 -358 516 -131
135 -302 258 -524 376 -105 55 -125 71 -224 173 -131 136 -197 217 -297 364
-96 143 -148 246 -196 392 -70 208 -83 378 -44 554 37 164 239 333 464 387 65
15 119 20 226 20 l141 0 43 -31 c24 -18 95 -63 158 -101 62 -38 148 -94 190
-124 134 -98 402 -382 402 -427 0 -5 -21 -6 -47 -3 -54 6 -275 10 -373 7 l-65
-2 90 -33 c77 -28 215 -91 215 -99 0 -1 -27 0 -59 1 l-60 4 -21 -50 c-37 -87
-40 -88 -260 -112 -217 -25 -417 -23 -525 4 -33 8 -61 14 -62 13 -1 -1 28 -45
65 -97 41 -59 128 -156 227 -256 151 -151 223 -212 605 -512 95 -74 228 -193
345 -309 199 -198 318 -297 323 -271 2 8 -4 34 -11 57 -8 22 -13 41 -12 41 7
0 115 -159 115 -169 0 -23 -114 -61 -233 -76 l-47 -6 172 -138 c95 -75 216
-178 268 -229 l95 -91 -63 -1 c-58 0 -207 -31 -240 -49 -10 -6 0 -20 38 -51
75 -63 104 -113 167 -282 l57 -153 0 -120 c0 -88 -5 -132 -17 -164 l-17 -43
58 7 c138 16 300 96 401 196 46 45 181 243 181 264 0 3 -20 -6 -45 -21 -88
-51 -167 -50 -182 4 -39 141 75 483 224 670 76 96 189 184 320 250 l62 32 6
-29 c11 -49 106 -193 170 -256 73 -72 155 -118 262 -147 122 -33 427 -36 738
-8 349 32 561 37 666 16 100 -20 208 -71 228 -107 21 -38 9 -67 -60 -138 -34
-35 -70 -83 -80 -105 l-18 -41 22 -3 c31 -4 188 52 262 93 141 79 195 157 195
285 0 98 -19 160 -87 289 -181 345 -422 555 -770 671 -317 105 -623 122 -908
50 -229 -58 -359 -147 -536 -370 -61 -76 -118 -141 -127 -145 -9 -4 -96 -11
-192 -16 -157 -8 -261 -20 -313 -35 -15 -5 -11 7 18 52 49 76 111 147 185 209
32 28 59 54 59 59 1 12 -147 -1 -224 -19 -33 -7 -62 -11 -65 -8 -3 3 26 34 64
69 62 58 182 130 244 146 12 3 22 11 22 16 0 10 -66 71 -140 131 l-25 20 48 1
47 0 0 39 c0 46 -40 127 -106 216 l-45 60 103 7 c57 4 118 10 136 13 l33 6
-59 39 c-70 47 -199 179 -265 272 -26 37 -47 69 -47 71 0 3 39 -12 88 -33 48
-20 126 -51 175 -68 71 -26 87 -29 87 -16 0 18 -78 212 -115 283 -14 28 -25
53 -25 57 0 11 94 -47 128 -79 17 -17 50 -61 72 -99 57 -95 64 -96 57 -7 -11
145 -70 271 -219 470 l-90 122 -241 -6 c-149 -3 -309 -13 -416 -26 -96 -11
-176 -19 -178 -17 -17 16 408 69 665 82 72 4 132 10 132 14 0 4 -7 13 -16 20
-8 8 -20 22 -26 33 -9 18 -8 18 23 -3 19 -13 43 -32 55 -42 16 -14 44 -20 117
-25 53 -3 97 -3 97 1 0 3 -18 59 -40 123 -40 115 -112 396 -125 483 l-7 45 38
-55 c20 -30 78 -96 128 -146 77 -76 107 -99 188 -139 79 -39 108 -48 165 -52
110 -8 110 -8 87 173 -28 217 -26 537 4 694 36 189 33 186 65 74 28 -98 105
-275 126 -288 8 -5 11 12 11 56 1 171 39 348 103 474 l24 47 6 -69 c3 -38 11
-94 18 -124 14 -63 10 -71 49 100 21 92 108 345 116 337 2 -2 0 -57 -6 -123
-5 -65 -7 -168 -3 -228 l6 -109 42 129 c49 149 123 311 187 410 43 66 123 154
140 154 5 0 6 -17 3 -37 -10 -74 -25 -295 -25 -361 l1 -67 45 50 c25 28 98
129 162 225 185 278 334 451 487 566 117 87 481 272 608 309 29 8 133 21 232
29 280 23 333 46 495 207 119 119 188 174 265 210 70 34 148 38 198 12z m4125
-390 c-1 -57 -3 -65 -5 -30 -3 37 -8 47 -18 43 -11 -4 -12 0 -4 21 24 64 29
58 27 -34z m350 -435 c-11 -30 -12 -31 -20 -9 -4 12 -12 19 -18 16 -5 -3 -10
-2 -10 4 0 5 8 12 18 14 39 10 41 8 30 -25z m-215 5 c-7 -2 -19 -2 -25 0 -7 3
-2 5 12 5 14 0 19 -2 13 -5z m157 3 c0 -9 -40 -13 -46 -5 -3 5 6 9 20 9 14 0
26 -2 26 -4z m-103 -12 c-3 -3 -12 -4 -19 -1 -8 3 -5 6 6 6 11 1 17 -2 13 -5z
m1037 -182 c-24 -79 -44 -151 -45 -160 0 -10 -3 -12 -6 -5 -2 7 3 39 13 70 9
32 16 73 16 91 -1 19 3 30 8 27 13 -8 13 -2 -3 27 -7 14 -18 23 -26 20 -10 -3
-10 -6 -1 -12 7 -4 0 -7 -17 -7 -38 0 -110 -29 -92 -36 8 -3 0 -4 -17 -2 -23
4 -34 0 -38 -11 -4 -9 -9 -14 -13 -11 -3 4 -12 2 -20 -5 -11 -9 -13 -8 -11 3
2 7 44 30 93 50 95 39 181 84 191 100 17 29 9 -10 -32 -139z m-39 -2 c-1 -11
-4 -22 -7 -25 -4 -5 -4 34 1 43 4 8 7 -1 6 -18z m-229 -7 c-4 -4 -19 -8 -34
-10 -23 -2 -24 -1 -7 7 24 11 51 13 41 3z m184 -24 c0 -18 -2 -19 -15 -9 -8 7
-15 16 -15 21 0 5 7 9 15 9 9 0 15 -9 15 -21z m226 -148 c-10 -11 -24 -17 -32
-14 -17 6 -19 16 -2 11 7 -3 19 1 26 9 21 20 27 15 8 -6z m94 -285 c-6 -19
-10 -44 -8 -55 2 -14 -15 -32 -62 -66 -36 -27 -56 -38 -45 -26 11 12 32 30 46
38 17 10 25 22 21 31 -3 10 -1 13 6 8 12 -7 15 1 15 37 0 9 3 17 8 17 4 0 10
14 14 31 4 17 9 28 12 25 3 -2 0 -21 -7 -40z m-2130 0 c0 -2 -8 -10 -17 -17
-16 -13 -17 -12 -4 4 13 16 21 21 21 13z m1980 -180 c0 -2 -8 -10 -17 -17 -16
-13 -17 -12 -4 4 13 16 21 21 21 13z m-50 -39 c0 -2 -12 -14 -27 -28 l-28 -24
24 28 c23 25 31 32 31 24z m-7666 -3276 c40 -44 -12 -106 -71 -85 -34 11 -44
61 -18 88 22 22 68 20 89 -3z m253 -176 c88 -44 95 -118 16 -152 -72 -29 -184
7 -219 72 -17 31 -17 34 0 60 34 52 121 60 203 20z m236 -134 c37 -14 57 -39
57 -71 0 -40 -23 -50 -111 -50 -85 0 -109 15 -109 66 0 26 6 37 28 48 31 17
99 21 135 7z m-96 -207 c-3 -3 -12 -4 -19 -1 -8 3 -5 6 6 6 11 1 17 -2 13 -5z
m-3372 -200 c7 -42 0 -54 -20 -33 -8 8 -11 25 -8 42 7 38 19 34 28 -9z m-1069
-1523 c17 -11 51 -52 76 -93 25 -40 92 -141 150 -224 107 -155 204 -312 196
-319 -2 -2 -73 -41 -158 -85 -326 -172 -907 -517 -1435 -854 -912 -581 -2092
-1427 -2584 -1853 l-73 -64 -120 183 c-66 100 -158 248 -205 327 -95 163 -97
174 -48 271 111 220 667 694 1425 1217 80 55 231 158 335 230 498 343 1232
792 1655 1011 243 126 509 239 625 265 53 12 131 6 161 -12z m14182 -1218 c34
-15 62 -31 62 -35 0 -16 -93 -194 -133 -255 -22 -33 -51 -66 -64 -72 -22 -10
-29 -6 -73 36 l-49 48 92 152 c51 84 94 152 97 153 3 0 33 -12 68 -27z
m-13481 -128 c37 -32 82 -109 70 -121 -14 -15 -227 94 -227 116 0 5 14 20 30
34 26 21 34 23 59 15 16 -6 46 -25 68 -44z m12616 -119 c-26 -24 -86 -97 -133
-162 -46 -66 -106 -150 -134 -189 -67 -93 -213 -244 -308 -316 -89 -68 -118
-105 -118 -149 0 -39 11 -60 68 -130 25 -30 55 -77 68 -105 24 -52 50 -153 41
-162 -11 -11 -148 109 -167 146 -18 36 -60 216 -60 258 0 39 22 92 53 131 17
22 102 125 187 229 257 313 356 412 465 464 84 41 95 36 38 -15z m686 -362
c74 -15 -2 -46 -90 -37 -33 3 -62 9 -64 14 -3 4 18 12 47 17 71 13 71 13 107
6z m-474 -108 c40 -17 68 -56 59 -82 -4 -10 -21 -35 -38 -54 -17 -19 -39 -46
-48 -59 l-17 -24 -35 31 c-19 16 -44 33 -55 37 -19 6 -19 8 -7 28 8 12 19 39
26 59 11 35 51 78 72 78 5 0 24 -6 43 -14z m-15196 -103 c21 -46 25 -125 7
-148 -15 -20 -15 -20 -58 3 -24 12 -58 35 -77 51 l-34 28 69 47 c38 25 71 46
75 46 3 0 11 -12 18 -27z m873 -121 c55 -24 84 -55 66 -69 -7 -6 -71 -13 -143
-17 -115 -5 -177 -14 -238 -32 -47 -14 45 97 108 131 39 21 147 14 207 -13z
m14065 0 c-19 -21 -22 -37 -5 -26 7 4 8 3 4 -5 -4 -6 -11 -9 -16 -6 -4 3 -10
2 -13 -2 -2 -5 -2 -2 -1 5 2 6 -1 12 -6 12 -18 0 -22 -47 -7 -76 8 -16 32 -45
52 -65 l36 -37 -32 -52 -31 -51 -48 54 c-29 32 -74 67 -112 87 -34 18 -65 34
-67 36 -2 2 8 22 22 44 34 51 74 71 136 69 32 -2 58 4 73 14 31 21 35 21 15
-1z m2876 -217 c42 -27 77 -53 77 -56 0 -15 -125 -89 -152 -89 -20 0 -38 -10
-60 -36 -42 -48 -77 -64 -140 -64 -71 0 -115 26 -124 75 -5 27 -2 41 12 56 16
18 26 20 69 14 48 -6 147 -29 180 -41 12 -5 15 3 15 42 0 42 9 94 26 142 5 17
6 17 97 -43z m-2750 3 c17 -13 47 -110 47 -153 0 -21 -5 -25 -31 -25 -17 0
-53 -12 -80 -27 -27 -14 -52 -23 -56 -20 -8 9 43 184 63 215 16 25 32 28 57
10z m-12222 -365 c13 -16 12 -17 -3 -4 -10 7 -18 15 -18 17 0 8 8 3 21 -13z
m14029 -103 c0 -5 -8 -10 -17 -10 -15 0 -16 2 -3 10 19 12 20 12 20 0z m-2760
-79 c0 -16 96 -116 155 -161 56 -43 56 -44 33 -56 -27 -14 -158 -34 -226 -34
-44 0 -112 29 -112 47 0 12 134 212 143 213 4 0 7 -4 7 -9z m-10490 -155 c0
-3 -4 -8 -10 -11 -5 -3 -10 -1 -10 4 0 6 5 11 10 11 6 0 10 -2 10 -4z m11894
-68 c4 3 4 -1 1 -10 -6 -14 -10 -15 -26 -5 -25 15 -25 31 0 18 10 -6 21 -7 25
-3z m-11644 -93 c17 -9 30 -17 30 -19 0 -3 -9 -24 -19 -49 -19 -45 -62 -87
-88 -87 -8 0 -11 -4 -8 -10 3 -5 2 -10 -4 -10 -5 0 -8 -9 -6 -21 2 -12 -5 -30
-16 -42 -13 -15 -18 -17 -14 -6 4 10 0 19 -12 23 -9 4 -14 4 -11 0 11 -10 -20
-36 -33 -28 -8 5 -10 2 -5 -7 4 -8 -4 -1 -19 15 -14 16 -24 35 -21 42 3 8 0
13 -6 11 -20 -4 -33 49 -22 90 8 34 12 38 43 39 27 0 35 5 46 31 7 17 22 33
32 36 40 10 106 6 133 -8z m-359 -43 c-17 -21 -39 -61 -49 -88 -18 -49 -18
-49 5 -99 28 -61 29 -119 4 -165 l-18 -35 63 3 c62 4 63 3 80 -30 9 -18 26
-45 37 -60 16 -21 19 -37 15 -83 -3 -32 1 -73 7 -93 15 -44 8 -74 -36 -139
-19 -28 -39 -58 -44 -68 -10 -17 -15 -16 -83 6 l-73 23 6 41 c4 22 15 69 26
104 28 92 27 96 -38 131 -32 16 -68 45 -80 63 -24 35 -30 72 -13 82 31 19 -20
134 -87 195 -68 63 -85 55 -102 -50 -13 -83 -45 -139 -101 -177 -27 -19 -36
-21 -48 -10 -13 9 -14 9 -8 0 4 -7 2 -13 -3 -13 -10 0 -15 27 -14 67 1 15
-114 66 -133 59 -9 -3 -12 -1 -9 4 3 6 1 10 -5 10 -7 0 -14 -9 -17 -20 -3 -11
-10 -20 -15 -20 -5 0 -7 -3 -5 -7 3 -5 -22 -6 -55 -5 l-59 4 6 31 c4 18 14 47
22 65 12 25 18 30 29 21 10 -8 14 -5 19 18 16 75 28 104 52 122 37 30 61 26
113 -18 l47 -40 12 52 c13 61 41 111 71 127 18 10 26 6 55 -23 19 -19 36 -32
39 -30 2 3 12 -6 21 -20 l16 -25 87 49 c92 52 102 55 102 38 0 -5 -4 -7 -10
-4 -5 3 -10 1 -10 -4 0 -6 12 -11 28 -11 21 0 24 2 12 10 -13 9 -13 10 0 10
13 0 13 2 1 9 -21 13 11 20 132 29 l39 3 -31 -39z m10732 21 c-7 -2 -21 -2
-30 0 -10 3 -4 5 12 5 17 0 24 -2 18 -5z m-58 -11 c-5 -4 -11 -14 -13 -22 -2
-8 -1 -12 3 -8 4 4 15 0 23 -9 9 -9 18 -11 20 -5 2 6 15 4 34 -6 23 -11 33
-12 36 -4 5 17 22 4 22 -17 0 -20 -18 -24 -146 -37 l-71 -6 5 31 c5 37 52 91
79 91 10 0 14 -4 8 -8z m-275 -220 c0 -25 -85 -153 -325 -492 -246 -347 -365
-520 -365 -532 0 -4 7 -8 15 -8 23 0 38 -39 31 -81 -9 -59 -80 -205 -106 -219
-28 -15 -73 -7 -111 20 l-29 21 -36 -56 c-48 -76 -58 -101 -94 -244 -17 -67
-41 -151 -55 -187 -35 -93 -111 -237 -140 -264 -31 -29 -70 -21 -93 20 -29 51
-54 40 -119 -51 l-57 -80 3 -74 c5 -120 -44 -177 -88 -104 l-19 32 -49 -68
c-26 -38 -74 -102 -105 -143 l-57 -75 6 -81 c7 -109 -10 -156 -59 -156 -20 0
-45 10 -62 24 l-30 23 -65 -81 c-141 -176 -372 -438 -379 -431 -5 4 455 698
909 1370 251 372 1166 1744 1309 1963 l93 143 38 -86 c22 -46 39 -93 39 -103z
m1458 163 c11 -10 -16 -52 -69 -110 -32 -36 -59 -70 -59 -76 0 -15 46 -4 184
43 114 40 119 41 132 23 19 -25 17 -52 -6 -102 -22 -49 -38 -58 -139 -77 -72
-13 -118 -10 -156 11 -10 6 -44 8 -75 6 -50 -5 -59 -2 -85 20 -30 25 -30 25
-17 83 20 97 80 152 196 180 44 10 82 10 94 -1z m-17050 -287 c13 -21 22 -44
19 -53 -5 -13 -107 -85 -121 -85 -2 0 -18 24 -34 53 -17 28 -64 91 -106 139
l-76 86 53 46 52 46 94 -97 c52 -54 105 -115 119 -135z m5576 22 c12 0 14 -5
6 -24 -6 -17 -5 -26 2 -28 7 -3 5 -7 -5 -11 -10 -4 -18 -1 -18 6 -1 7 -5 -4
-9 -23 -6 -31 -8 -28 -9 25 -2 70 -8 83 -47 95 l-29 10 28 -4 c15 -2 30 1 34
7 3 5 12 -5 19 -22 7 -17 20 -31 28 -31z m10168 -28 l21 -21 -43 -75 c-60
-104 -92 -136 -140 -136 -52 0 -64 18 -57 84 6 64 36 126 74 156 36 28 114 24
145 -8z m1013 -236 c18 -8 41 -25 49 -38 22 -33 30 -107 17 -142 -11 -28 -13
-28 -64 -22 -105 14 -166 37 -218 83 -36 33 -49 52 -49 72 0 25 6 30 48 44 59
20 172 21 217 3z m-10969 -66 c13 0 12 -5 -3 -31 -10 -17 -30 -42 -45 -54 -16
-13 -28 -28 -28 -33 0 -21 -28 -34 -49 -23 -20 11 -20 12 -1 54 10 23 22 59
25 80 4 21 13 41 21 44 7 2 10 12 7 21 -3 9 9 0 26 -20 18 -21 39 -38 47 -38z
m-5494 -50 c-3 -3 -7 1 -9 8 -7 18 -21 15 -27 -6 -4 -10 -13 -19 -21 -19 -15
0 -13 6 24 50 13 16 15 16 26 -5 6 -13 10 -25 7 -28z m5782 -45 c3 -8 1 -15
-4 -15 -6 0 -10 7 -10 15 0 8 2 15 4 15 2 0 6 -7 10 -15z m-26 -20 c-3 -3 -9
2 -12 12 -6 14 -5 15 5 6 7 -7 10 -15 7 -18z m82 -23 c0 -8 -1 -13 -3 -11 -1
2 -9 12 -16 22 -12 15 -12 17 3 11 9 -3 16 -13 16 -22z m-47 -13 c-3 -24 -1
-29 9 -24 7 3 4 0 -6 -9 -10 -8 -23 -13 -29 -9 -6 3 -7 1 -3 -5 4 -6 12 -9 20
-6 7 3 13 -2 13 -9 0 -23 -48 -2 -94 40 -21 19 -31 30 -22 24 9 -6 19 -7 23
-3 4 4 6 0 4 -8 -2 -11 7 -15 35 -15 20 -1 37 3 37 8 0 5 -7 7 -15 3 -23 -8
-18 10 8 27 12 9 23 16 24 16 1 1 -1 -13 -4 -30z m14787 14 c3 -3 -4 -4 -15
-2 -11 2 -25 0 -31 -3 -6 -4 -11 -1 -11 6 0 13 44 13 57 -1z m30 -18 c0 -10
-10 -15 -31 -15 -17 0 -28 4 -24 10 3 5 12 7 20 3 8 -3 15 0 15 6 0 6 5 11 10
11 6 0 10 -7 10 -15z m-25 -35 c3 -5 1 -10 -4 -10 -6 0 -11 5 -11 10 0 6 2 10
4 10 3 0 8 -4 11 -10z m-20162 -59 c15 -16 27 -34 27 -40 0 -20 -88 -187 -115
-219 -17 -20 -36 -32 -52 -32 l-25 0 6 116 c4 96 8 119 23 129 10 7 36 27 58
43 22 17 42 31 45 31 3 1 17 -12 33 -28z m4873 -7 c-3 -8 -1 -14 4 -14 6 0 10
7 10 16 0 13 5 12 29 -5 30 -21 49 -80 34 -104 -4 -6 -6 -24 -4 -39 4 -38 -7
-52 -26 -37 -12 10 -17 10 -25 -2 -8 -12 -9 -12 -6 1 3 8 15 17 29 20 l24 6
-23 6 c-12 4 -21 10 -20 15 3 8 -5 13 -23 13 -6 0 -9 -9 -6 -19 2 -10 1 -25
-4 -32 -5 -8 -3 -17 4 -21 9 -6 9 -8 0 -8 -6 0 -15 5 -18 10 -4 6 -12 8 -18 4
-7 -3 -3 3 8 13 17 15 19 26 14 73 -3 30 -11 67 -18 82 -19 37 -8 63 20 48 12
-7 18 -18 15 -26z m-5307 -23 c14 -32 30 -140 22 -139 -20 2 -31 -3 -26 -12 8
-13 -45 -25 -63 -13 -41 25 -39 112 4 163 32 38 48 38 63 1z m20786 -31 c62
-23 67 -149 9 -207 -19 -19 -23 -17 -44 30 -22 47 -26 123 -8 162 13 29 9 28
43 15z m-21375 -207 c18 -32 57 -93 87 -136 100 -143 201 -355 238 -497 18
-70 34 -190 26 -190 -24 1 -263 437 -357 650 -62 141 -90 250 -80 314 l8 49
23 -67 c13 -36 38 -92 55 -123z m635 67 c8 -24 27 -35 80 -45 71 -12 76 -19
60 -66 -21 -59 -19 -77 15 -115 34 -39 45 -73 36 -109 -6 -24 -36 -36 -36 -15
0 6 -10 10 -22 10 -13 0 -52 -31 -105 -82 -46 -46 -85 -84 -87 -86 -3 -2 -14
2 -26 8 -62 33 -65 190 -5 266 22 28 24 28 42 11 26 -23 30 -22 35 8 3 13 1
22 -3 19 -5 -3 -9 10 -9 29 0 19 -7 54 -15 77 -19 53 -19 55 0 40 19 -15 28 4
21 43 -5 31 10 37 19 7z m5290 -20 c3 -5 1 -10 -4 -10 -6 0 -11 5 -11 10 0 6
2 10 4 10 3 0 8 -4 11 -10z m10267 -391 c35 -33 38 -41 38 -88 0 -42 -5 -57
-26 -78 -21 -21 -32 -24 -61 -20 -49 8 -79 31 -102 75 -22 42 -17 88 16 156
l16 35 41 -22 c22 -12 57 -38 78 -58z m-9992 -17 c49 -48 75 -132 65 -205 -7
-55 -57 -165 -92 -203 -19 -21 -25 -22 -52 -13 -31 11 -40 32 -20 45 6 3 20
26 31 51 22 50 18 68 -34 178 -48 103 -33 185 35 185 21 0 40 -11 67 -38z
m567 -24 c53 -54 63 -73 41 -76 -7 -1 -36 -4 -64 -8 -50 -6 -52 -6 -92 37 -63
67 -50 116 28 104 25 -3 49 -19 87 -57z m14948 -28 c-4 -12 -9 -19 -12 -17 -3
3 -2 15 2 27 4 12 9 19 12 17 3 -3 2 -15 -2 -27z m-19325 -15 c4 3 6 -4 3 -15
-8 -32 -23 -23 -22 13 1 17 3 24 6 14 2 -9 8 -15 13 -12z m4623 -52 c25 -25
38 -51 18 -39 -5 3 -28 -9 -52 -28 -24 -18 -58 -40 -75 -49 -28 -14 -33 -14
-53 -1 -30 21 -26 55 10 95 17 19 35 44 40 57 8 22 10 22 46 7 21 -9 50 -28
66 -42z m-4635 -96 c-1 -12 -8 -31 -15 -42 -12 -18 -13 -16 -13 21 0 22 3 44
6 47 12 11 23 -3 22 -26z m13739 11 c31 -29 29 -43 -12 -135 -57 -124 -79
-151 -142 -169 -41 -12 -62 -25 -90 -60 -21 -24 -46 -47 -56 -50 -21 -7 -110
15 -105 25 2 4 23 52 47 108 44 99 46 102 100 130 35 18 68 46 89 74 63 86 78
99 113 99 20 0 42 -8 56 -22z m-8929 -49 c-3 -8 -7 -3 -11 10 -4 17 -3 21 5
13 5 -5 8 -16 6 -23z m104 -154 c33 -105 27 -125 -40 -125 -50 0 -77 21 -97
73 -15 41 -15 47 0 78 32 69 46 89 63 89 15 1 16 2 1 13 -11 8 -13 15 -5 23
11 11 51 -65 78 -151z m-6474 -47 l54 -20 -90 -54 -90 -54 -38 16 c-22 9 -81
25 -132 35 -51 10 -105 25 -120 33 -25 13 -24 14 33 13 39 0 89 9 140 26 125
40 145 41 243 5z m20681 -81 c-34 -67 -88 -145 -106 -151 -22 -9 -27 -1 -11
15 25 25 64 95 45 80 -11 -9 -17 -10 -17 -2 0 6 11 16 25 21 13 5 31 23 40 40
8 16 20 30 26 30 6 0 7 5 3 12 -4 7 -3 8 4 4 9 -5 6 -19 -9 -49z m-1081 -42
c-3 -14 -1 -28 4 -31 4 -3 6 -10 3 -15 -11 -17 12 -9 30 11 42 46 84 3 86 -86
2 -85 -8 -159 -20 -157 -6 2 -11 -3 -11 -10 0 -10 -15 -14 -55 -13 -30 0 -55
4 -55 8 0 4 5 8 11 8 5 0 7 5 4 10 -4 6 -10 8 -15 5 -5 -3 -12 6 -16 21 -4 14
-9 22 -13 17 -8 -12 -44 -25 -36 -14 3 5 1 11 -4 13 -4 1 -11 13 -15 25 -6 18
-4 22 8 17 19 -7 21 13 5 36 -9 13 -10 12 -5 -3 4 -14 1 -16 -20 -13 -40 8
-39 12 5 41 31 19 50 42 73 90 35 70 43 79 36 40z m-18227 -122 c13 -16 12
-17 -3 -4 -17 13 -22 21 -14 21 2 0 10 -8 17 -17z m18910 -25 l68 -42 -48 -60
c-26 -34 -115 -167 -197 -297 -82 -131 -152 -235 -155 -233 -3 2 -6 -3 -6 -10
0 -12 -77 -140 -240 -399 -62 -97 -77 -116 -89 -106 -8 7 -17 9 -21 5 -3 -3
-2 -6 4 -6 16 0 24 -28 11 -36 -7 -5 -8 -2 -3 6 6 10 4 12 -8 7 -9 -3 -16 -3
-16 1 4 22 -2 42 -11 37 -5 -3 -10 -2 -10 3 0 6 -9 8 -20 5 -12 -3 -20 0 -20
6 0 7 4 10 9 6 5 -3 10 7 9 22 0 35 131 283 180 341 75 88 120 161 131 210 6
31 38 95 81 166 38 63 70 118 70 122 0 3 -12 -8 -26 -26 -22 -26 -72 -60 -88
-60 -18 0 -36 37 -36 74 0 127 104 292 171 271 36 -12 39 -37 19 -124 -11 -45
-25 -91 -30 -102 -6 -10 -9 -19 -6 -19 2 0 33 48 68 106 68 114 113 174 130
174 6 0 41 -19 79 -42z m-1422 -1 c19 -7 43 -24 54 -39 20 -26 20 -28 2 -74
-17 -46 -17 -48 0 -61 11 -7 26 -13 34 -13 9 0 39 -11 67 -24 88 -41 76 -78
-25 -80 -33 0 -58 1 -56 4 2 4 -6 12 -17 19 -19 12 -20 11 -15 -8 3 -14 1 -19
-6 -15 -8 5 -7 2 1 -7 6 -7 12 -21 12 -31 0 -10 6 -18 14 -18 9 0 13 -8 9 -22
-4 -22 -4 -23 11 -4 9 11 16 14 16 8 0 -8 10 -11 28 -7 15 2 10 -2 -13 -9 -48
-17 -165 -20 -216 -6 -46 13 -53 33 -53 165 -1 87 -4 104 -23 132 -27 37 -30
78 -5 92 23 14 139 13 181 -2z m628 -67 c25 -75 10 -232 -28 -274 -12 -14 -67
31 -93 77 -36 61 -48 123 -32 162 20 47 63 77 105 73 31 -3 38 -8 48 -38z
m-19138 -79 c1 -24 -11 -86 -25 -138 -18 -66 -24 -106 -19 -132 4 -23 3 -32
-3 -26 -14 15 -151 222 -154 233 -2 5 31 32 72 60 42 28 84 60 95 72 l20 22 6
-24 c4 -12 7 -43 8 -67z m14403 -109 c33 -34 178 -301 179 -333 4 -67 -43
-103 -102 -79 -52 22 -72 57 -154 275 -43 115 -47 143 -21 161 27 19 63 10 98
-24z m5048 -152 c14 -27 12 -62 -6 -117 -34 -99 -106 -172 -158 -159 -24 6
-46 43 -46 78 0 24 75 141 127 199 29 32 38 37 54 29 10 -6 23 -19 29 -30z
m-733 18 c15 -6 39 -13 53 -14 27 -3 34 -12 93 -107 28 -47 37 -71 35 -97 l-3
-35 -46 3 -46 4 -24 -49 c-16 -33 -37 -55 -64 -71 -35 -20 -50 -23 -125 -18
-96 5 -146 19 -160 47 -9 15 -4 21 35 38 119 53 184 130 169 205 -11 61 2 88
53 105 1 1 14 -4 30 -11z m-12118 -130 c35 -70 44 -99 48 -155 5 -81 0 -92
-104 -223 -42 -52 -70 -96 -67 -104 7 -19 -52 -36 -123 -36 -52 0 -53 1 -53
29 0 27 5 31 65 51 36 12 65 23 65 25 0 2 -18 25 -40 50 -61 71 -62 94 -3 171
27 36 104 191 122 247 19 57 40 45 90 -55z m-6122 -20 c41 -43 85 -114 98
-155 4 -17 -1 -29 -19 -48 -55 -55 -151 -13 -201 89 -35 71 -29 107 23 134 20
11 42 20 47 21 6 0 29 -18 52 -41z m18626 -295 c25 -43 28 -157 5 -180 -15
-14 -20 -14 -54 3 -80 39 -110 139 -59 190 36 36 83 30 108 -13z m-878 -53
c-3 -5 0 -10 7 -10 10 0 9 -3 -2 -9 -20 -13 -34 -2 -19 15 13 16 23 19 14 4z
m181 -6 c-5 -13 -2 -15 13 -11 26 6 44 -14 29 -33 -8 -13 -9 -13 -5 1 8 24
-30 17 -56 -11 -12 -13 -15 -19 -6 -12 9 7 19 9 22 5 4 -3 7 1 7 11 0 9 5 14
10 11 6 -4 7 -13 1 -24 -6 -10 -6 -23 -1 -31 5 -8 6 -18 4 -22 -3 -4 0 -8 5
-8 6 0 11 -5 11 -11 0 -5 -6 -7 -12 -3 -7 4 -5 -2 6 -14 18 -21 18 -22 -10
-33 -17 -6 -55 -9 -91 -5 -93 8 -138 36 -149 92 -8 45 3 76 26 69 10 -3 25 1
34 10 15 15 17 15 22 1 3 -9 10 -13 15 -10 5 3 9 1 9 -4 0 -16 38 -1 44 17 3
9 4 4 2 -11 -2 -15 1 -25 5 -22 5 3 9 12 9 20 0 17 12 18 27 3 7 -7 12 -3 17
15 3 14 9 26 12 26 3 0 3 -7 0 -16z m-12245 -46 c22 -6 39 -14 39 -18 0 -16
-91 -174 -107 -186 -10 -7 -32 -14 -50 -14 -26 0 -37 7 -58 37 -28 43 -31 72
-11 111 16 30 53 66 76 75 26 9 71 7 111 -5z m-4349 -105 c42 -28 88 -110 88
-155 0 -16 14 -55 30 -88 17 -33 30 -74 30 -92 0 -45 -43 -108 -74 -108 -46 0
-116 114 -116 189 0 33 -5 41 -46 69 -66 47 -101 132 -73 183 24 45 97 46 161
2z m4105 -19 l32 -5 -30 -57 c-25 -47 -30 -67 -27 -110 3 -58 6 -56 -72 -38
-52 12 -58 16 -110 89 -30 42 -66 90 -79 108 l-24 31 139 -7 c77 -3 153 -8
171 -11z m546 -394 c42 -19 78 -41 79 -49 2 -8 1 -34 -1 -58 -2 -37 -6 -43
-25 -43 -67 0 -196 135 -196 204 l0 38 33 -29 c18 -16 67 -44 110 -63z m11161
-116 c3 -8 2 -12 -4 -9 -6 3 -10 10 -10 16 0 14 7 11 14 -7z m-4524 -5 c0 11
3 11 15 1 8 -7 15 -24 14 -39 0 -14 -3 -20 -6 -13 -2 6 -11 12 -19 12 -8 0
-14 4 -14 10 0 5 -7 7 -16 3 -14 -5 -15 -3 -4 17 10 18 14 20 21 9 7 -12 9
-12 9 0z m4540 -44 c0 -33 -15 -33 -16 0 -1 14 2 25 7 25 5 0 9 -11 9 -25z
m1200 -15 c0 -5 -5 -10 -11 -10 -5 0 -7 5 -4 10 3 6 8 10 11 10 2 0 4 -4 4
-10z"/>
<path d="M7920 11346 c0 -7 201 -169 205 -165 4 6 -50 139 -61 148 -10 9 -144
25 -144 17z"/>
<path d="M15270 10485 c-469 -64 -885 -305 -1131 -655 -74 -104 -121 -189
-113 -201 5 -8 3 -9 -6 -4 -10 6 -12 4 -7 -9 4 -9 3 -15 -1 -12 -5 3 -18 -18
-30 -47 -34 -83 -92 -260 -87 -265 3 -3 5 0 5 7 0 7 4 10 9 7 5 -4 22 -1 37 4
85 33 569 138 581 127 2 -2 -11 -7 -28 -11 -55 -11 -27 -16 107 -20 140 -4
204 1 204 15 0 5 -3 8 -7 7 -16 -3 -43 15 -43 28 0 8 -3 13 -7 13 -5 -1 -21 0
-38 1 -17 1 28 14 100 29 137 29 210 55 200 71 -3 6 -13 10 -21 10 -27 0 -92
39 -99 59 -7 22 14 68 41 92 37 32 84 49 136 49 61 0 93 -14 121 -52 20 -27
20 -29 4 -63 -10 -21 -31 -42 -51 -52 -20 -9 -38 -23 -41 -30 -4 -12 5 -13 50
-8 48 6 55 5 55 -10 0 -32 -22 -57 -73 -81 l-52 -24 47 4 c26 3 50 0 53 -5 4
-5 15 -9 26 -9 11 0 18 3 16 8 -3 4 11 8 32 8 44 2 254 55 376 95 50 16 149
58 220 94 210 104 376 255 467 423 l37 69 -53 46 c-125 108 -366 239 -496 271
-156 37 -363 45 -540 21z m127 -151 c-3 -3 -12 -4 -19 -1 -8 3 -5 6 6 6 11 1
17 -2 13 -5z m-90 -10 c-3 -3 -12 -4 -19 -1 -8 3 -5 6 6 6 11 1 17 -2 13 -5z
m-247 -56 c-12 -5 -25 -6 -28 -3 -3 3 0 5 7 5 7 0 10 4 7 9 -4 5 4 7 16 3 l22
-5 -24 -9z m870 -28 c8 -5 11 -10 5 -10 -5 0 -17 5 -25 10 -8 5 -10 10 -5 10
6 0 17 -5 25 -10z m45 -20 c3 -6 -1 -7 -9 -4 -18 7 -21 14 -7 14 6 0 13 -4 16
-10z m-1300 -128 c-6 -5 -39 -31 -75 -57 -36 -27 -112 -96 -170 -154 -106
-105 -108 -105 -12 2 47 53 67 88 43 72 -5 -3 -12 -1 -15 4 -4 5 5 8 18 7 27
-3 81 26 69 37 -3 4 -1 7 5 7 7 0 40 20 74 45 55 40 89 60 63 37z m-360 -162
c3 -6 -1 -7 -9 -4 -18 7 -21 14 -7 14 6 0 13 -4 16 -10z m1687 -13 c-12 -13
-19 -27 -15 -32 5 -4 4 -6 -2 -3 -5 3 -15 0 -22 -7 -10 -10 -9 -15 4 -19 9 -4
13 -9 10 -13 -4 -3 -13 0 -22 7 -8 7 -15 8 -15 3 0 -10 -59 -47 -66 -40 -2 2
13 16 34 31 21 14 53 42 72 61 19 19 36 35 39 35 2 0 -5 -10 -17 -23z m-1319
-259 c9 -7 23 -29 31 -49 15 -35 14 -36 -15 -53 -38 -22 -92 -14 -114 17 -20
28 -19 39 6 71 22 29 64 35 92 14z m-481 -70 c-11 -18 -38 -66 -61 -105 -23
-40 -47 -73 -53 -73 -7 0 -5 7 4 18 8 9 17 27 20 38 4 17 2 20 -13 17 -11 -3
-19 0 -19 6 0 6 -9 11 -20 11 -11 0 -19 3 -19 8 3 19 -2 23 -16 12 -9 -7 -15
-8 -15 -2 0 10 23 22 41 22 5 0 9 -7 9 -15 0 -8 2 -15 4 -15 2 0 12 -3 22 -7
12 -4 15 -3 10 5 -5 8 -2 10 9 6 17 -7 65 21 65 37 0 12 38 69 46 69 3 0 -3
-15 -14 -32z m1175 26 c-3 -3 -12 -4 -19 -1 -8 3 -5 6 6 6 11 1 17 -2 13 -5z
m-40 -10 c-3 -3 -12 -4 -19 -1 -8 3 -5 6 6 6 11 1 17 -2 13 -5z m-10 -84 c-1
-11 -7 -20 -14 -20 -16 0 -16 7 0 25 16 19 16 18 14 -5z m73 16 c0 -2 -6 -9
-14 -15 -11 -9 -16 -9 -22 0 -4 7 -3 9 4 5 6 -3 13 -2 17 4 6 10 15 14 15 6z
m-1144 -46 c0 -11 -6 -20 -13 -20 -11 0 -11 5 -3 20 6 11 12 20 13 20 2 0 3
-9 3 -20z m1054 0 c13 -8 13 -10 -2 -10 -9 0 -20 5 -23 10 -8 13 5 13 25 0z
m-1013 -6 c-3 -3 -12 -4 -19 -1 -8 3 -5 6 6 6 11 1 17 -2 13 -5z m368 -19
c-36 -14 -125 -32 -125 -26 0 4 21 12 48 18 46 10 97 15 77 8z"/>
<path d="M14998 9453 c18 -2 45 -2 60 0 15 2 0 4 -33 4 -33 0 -45 -2 -27 -4z"/>
<path d="M15148 9443 c6 -2 18 -2 25 0 6 3 1 5 -13 5 -14 0 -19 -2 -12 -5z"/>
<path d="M15098 9433 c6 -2 18 -2 25 0 6 3 1 5 -13 5 -14 0 -19 -2 -12 -5z"/>
<path d="M15048 9423 c6 -2 18 -2 25 0 6 3 1 5 -13 5 -14 0 -19 -2 -12 -5z"/>
<path d="M13450 7624 c0 -113 -115 -384 -212 -503 -79 -96 -90 -102 -204 -111
-122 -9 -166 -21 -226 -59 -56 -35 -87 -91 -95 -165 -5 -45 0 -64 31 -135 20
-45 36 -83 36 -84 0 -4 -240 4 -505 18 -345 18 -443 40 -470 105 -27 64 -52
106 -75 122 -32 23 -128 44 -256 56 -118 11 -159 29 -225 99 -77 80 -104 126
-207 353 -10 21 -11 11 -8 -55 8 -206 48 -384 117 -515 43 -83 151 -224 249
-325 67 -71 85 -77 244 -90 61 -6 77 -4 71 6 -5 6 12 -2 36 -19 343 -242 334
-233 334 -325 0 -75 -30 -141 -90 -196 -32 -30 -74 -49 -214 -99 -305 -110
-659 -185 -1041 -223 -142 -14 -441 -18 -483 -6 -17 5 -26 4 -23 -1 7 -11 -26
-22 -66 -22 -16 0 -28 -2 -28 -4 0 -3 41 -78 92 -168 163 -292 267 -486 461
-863 104 -203 228 -437 274 -520 279 -491 496 -713 827 -845 99 -39 274 -85
411 -107 150 -24 438 -24 595 1 143 22 352 75 456 115 196 75 372 236 519 472
76 122 129 232 240 494 89 209 228 515 245 540 23 32 379 743 431 860 83 189
134 395 97 395 -7 0 -35 -11 -63 -23 -120 -56 -317 -109 -494 -132 -122 -17
-421 -20 -502 -5 -30 5 -139 16 -244 25 -321 27 -648 85 -739 132 -81 42 -166
157 -166 226 0 48 26 89 140 222 154 179 171 222 131 330 -10 28 -28 76 -40
109 -26 70 -22 103 20 151 37 42 95 62 216 74 111 12 153 32 221 105 65 72
105 142 139 248 l28 85 -2 -121 c-3 -137 6 -127 33 34 12 72 14 127 9 226 -4
72 -11 138 -16 145 -6 9 -9 0 -9 -27z m-2110 -824 c8 -5 11 -10 5 -10 -5 0
-17 5 -25 10 -8 5 -10 10 -5 10 6 0 17 -5 25 -10z m134 -38 c3 -5 -8 -6 -25
-4 -16 2 -29 6 -29 8 0 8 49 4 54 -4z m104 -9 c-10 -2 -28 -2 -40 0 -13 2 -5
4 17 4 22 1 32 -1 23 -4z m1209 -245 c-3 -8 -6 -5 -6 6 -1 11 2 17 5 13 3 -3
4 -12 1 -19z m1908 -855 c-16 -68 -119 -296 -231 -518 -67 -132 -177 -350
-246 -485 -68 -135 -175 -364 -237 -510 -149 -348 -219 -490 -301 -614 -154
-230 -330 -363 -561 -421 -49 -13 -89 -21 -89 -20 0 2 28 21 61 42 l61 37 -48
13 c-93 24 -239 52 -309 59 l-70 7 92 18 c50 11 151 40 225 65 281 98 439 201
537 354 72 112 107 235 140 496 22 170 41 246 96 374 19 44 32 80 30 80 -3 0
-18 -26 -34 -58 -40 -79 -101 -279 -160 -522 -76 -314 -99 -368 -197 -465 -48
-49 -57 -54 -86 -49 -92 16 -128 42 -128 92 0 13 29 110 64 216 68 206 171
432 271 596 100 164 268 392 412 556 29 33 51 64 48 67 -3 4 -2 5 1 3 9 -7
185 198 244 284 l24 34 -23 -16 c-17 -12 -29 -14 -42 -8 -12 7 -19 6 -23 -3
-4 -6 -5 -3 -2 9 3 17 -1 20 -20 16 -22 -4 -22 -4 -6 32 9 20 20 36 25 36 4 0
6 4 3 9 -8 13 -45 2 -42 -12 2 -7 1 -9 -1 -4 -3 4 -12 7 -21 7 -10 1 -5 7 13
16 l30 14 -33 -5 c-19 -3 -42 -15 -52 -27 -11 -13 -19 -17 -20 -10 0 6 -10 12
-22 12 -22 1 -22 1 -4 11 14 9 20 8 27 -2 4 -7 11 -10 15 -6 4 4 -1 14 -12 21
-12 9 -23 11 -28 5 -12 -11 -29 -12 -22 -1 3 5 -1 9 -9 9 -8 0 -12 -4 -10 -8
3 -4 -4 -5 -15 -2 -11 3 -20 10 -20 15 0 5 4 7 9 3 5 -3 12 -1 15 4 7 11 -13
9 -31 -2 -9 -6 -13 -1 -13 13 0 11 7 23 15 26 8 4 15 10 15 16 0 5 -4 7 -9 4
-5 -4 -19 -2 -32 2 -14 6 44 11 162 16 101 3 195 8 209 10 14 2 17 1 8 -1 -10
-2 -18 -9 -18 -15 0 -6 3 -8 6 -5 4 3 16 0 26 -8 11 -7 27 -11 34 -8 10 4 12
0 7 -13 -13 -34 13 -5 31 34 18 39 20 40 120 67 56 14 109 31 117 36 28 18 42
11 34 -18z m-780 -83 c3 -5 1 -10 -4 -10 -6 0 -11 5 -11 10 0 6 2 10 4 10 3 0
8 -4 11 -10z m220 -150 c-7 -11 -45 -19 -45 -10 0 9 17 17 37 17 7 0 10 -4 8
-7z m-316 -123 c-5 -20 -15 -39 -21 -43 -8 -5 -9 -1 -4 12 5 10 13 32 18 47
14 39 20 28 7 -16z m-143 -284 c-2 -9 -8 -19 -13 -20 -13 -5 -5 -43 9 -43 5 0
6 -4 3 -10 -3 -5 2 -10 11 -10 25 0 9 -12 -18 -14 -16 -1 -23 -7 -21 -19 0
-10 -2 -16 -5 -13 -3 3 -11 1 -19 -5 -9 -9 -13 -8 -13 0 0 6 4 11 9 11 5 0 11
7 15 15 10 27 -13 16 -56 -27 l-41 -43 30 40 c17 22 47 66 68 98 21 31 39 57
41 57 1 0 1 -8 0 -17z m-266 -362 c-5 -11 -15 -23 -21 -27 -6 -3 -3 5 6 20 20
30 30 35 15 7z m-1984 -666 c10 -16 13 -26 7 -22 -8 5 -13 3 -14 -5 -1 -14
-22 31 -34 72 -7 24 -6 24 8 5 7 -11 22 -33 33 -50z m22 -70 c-4 -21 6 -26
144 -75 81 -29 148 -57 148 -62 0 -5 5 -6 10 -3 15 9 51 -5 44 -17 -4 -6 1 -8
16 -3 17 5 21 4 15 -5 -5 -9 -4 -11 4 -6 11 7 106 -19 126 -34 6 -5 15 -8 20
-9 6 0 29 -5 52 -11 29 -9 40 -16 36 -26 -3 -9 1 -14 12 -14 10 0 13 5 9 12
-4 7 -3 8 5 4 6 -4 9 -11 6 -16 -2 -4 7 -10 22 -13 26 -5 26 -4 8 9 -10 8 -16
14 -12 14 13 0 178 -42 175 -45 -2 -1 -22 -5 -45 -9 -28 -4 -43 -2 -43 4 0 6
5 8 12 4 6 -4 8 -3 5 3 -8 12 -67 23 -67 12 0 -3 10 -9 22 -13 18 -4 20 -8 11
-17 -9 -9 -16 -9 -29 2 -10 8 -15 9 -11 3 4 -7 0 -17 -8 -24 -13 -11 -14 -10
-9 5 5 13 4 16 -4 11 -8 -5 -12 0 -12 13 0 24 -18 28 -26 6 -4 -8 -11 -12 -17
-8 -6 4 -7 1 -3 -6 5 -7 14 -10 22 -7 9 3 11 0 7 -11 -5 -12 -3 -14 7 -8 9 5
11 4 6 -3 -5 -8 -13 -9 -26 -2 -13 7 -19 6 -24 -5 -3 -8 -10 -15 -16 -15 -6 0
-8 5 -5 10 9 14 -7 12 -30 -3 -11 -8 -36 -13 -55 -11 l-34 2 23 -17 c14 -11
33 -16 49 -13 19 4 23 2 16 -9 -5 -9 2 -7 20 5 16 10 25 13 22 7 -4 -6 -2 -11
4 -11 6 0 8 -4 5 -10 -11 -17 7 -11 21 8 9 11 16 14 21 6 5 -6 16 -10 26 -8 9
1 15 -2 11 -7 -3 -5 -1 -9 5 -9 5 0 11 5 13 11 2 7 11 7 28 0 21 -8 19 -12 -5
-11 -3 0 -19 -7 -35 -15 -27 -14 -34 -13 -32 5 0 3 -15 4 -34 2 -19 -2 -34 -8
-34 -13 0 -5 -5 -9 -11 -9 -6 0 -9 7 -5 15 7 19 1 19 -18 -1 -9 -8 -16 -11
-16 -6 0 5 -12 7 -26 4 -21 -4 -25 -2 -19 9 5 8 4 10 0 6 -12 -10 -15 -38 -4
-31 5 3 9 -2 9 -12 0 -13 -3 -14 -15 -4 -8 6 -20 8 -27 4 -9 -5 -8 -1 2 11 15
19 14 19 -10 4 -14 -9 -25 -24 -25 -32 0 -31 -16 -29 -84 12 -85 50 -180 143
-238 233 -58 89 -137 254 -128 267 11 18 27 0 23 -24z m895 -312 c-7 -2 -21
-2 -30 0 -10 3 -4 5 12 5 17 0 24 -2 18 -5z m47 -29 c-12 -31 -4 -50 15 -34 9
8 14 7 18 -3 3 -8 -1 -13 -12 -12 -29 2 -42 16 -35 37 4 13 1 24 -7 29 -10 6
-8 9 8 9 20 0 21 -3 13 -26z m203 19 c-7 -2 -19 -2 -25 0 -7 3 -2 5 12 5 14 0
19 -2 13 -5z m-370 -30 c3 -16 2 -32 -3 -37 -4 -4 -8 -2 -7 5 1 42 -3 50 -22
39 -24 -12 -31 -13 -31 -1 0 9 19 17 46 20 7 0 14 -11 17 -26z m37 6 c0 -4 -7
-6 -15 -3 -8 4 -15 10 -15 15 0 4 7 6 15 3 8 -4 15 -10 15 -15z m75 -9 c-3 -5
1 -10 10 -10 13 0 14 -3 3 -22 l-12 -23 -6 25 c-7 24 -4 40 6 40 3 0 2 -4 -1
-10z m-141 -8 c3 -5 -1 -9 -9 -9 -8 0 -12 4 -9 9 3 4 7 8 9 8 2 0 6 -4 9 -8z
m129 -40 c4 -23 3 -24 -7 -10 -12 16 -14 16 -31 0 -10 -9 -15 -12 -11 -5 3 6
1 13 -6 16 -7 2 -5 3 4 2 19 -3 32 21 21 38 -4 8 -1 7 9 -1 9 -7 18 -25 21
-40z m56 -16 c9 -11 9 -16 -1 -22 -7 -4 -10 -4 -6 1 4 4 3 14 -3 22 -6 7 -9
13 -6 13 2 0 10 -6 16 -14z m28 -23 c-3 -10 -5 -4 -5 12 0 17 2 24 5 18 2 -7
2 -21 0 -30z m313 23 c0 -2 -8 -10 -17 -17 -16 -13 -17 -12 -4 4 13 16 21 21
21 13z m-630 -40 c-4 -4 -16 -4 -26 2 -16 9 -14 10 8 9 15 -1 23 -6 18 -11z
m582 -17 c-11 -12 -18 -15 -23 -7 -9 14 12 37 28 31 8 -3 7 -10 -5 -24z m-532
11 c0 -5 -5 -10 -11 -10 -5 0 -7 5 -4 10 3 6 8 10 11 10 2 0 4 -4 4 -10z m601
-29 c-7 -13 -8 -22 -1 -26 5 -3 10 1 10 9 0 18 2 19 25 10 13 -6 14 -9 3 -16
-9 -7 -7 -8 7 -3 42 14 69 16 77 3 7 -10 11 -9 19 5 5 9 14 17 19 17 5 0 7 -8
4 -17 -4 -11 -2 -14 3 -8 7 9 15 12 41 16 21 4 32 -3 33 -18 0 -11 3 -13 6 -5
2 6 9 12 14 12 6 0 8 -4 4 -9 -3 -6 2 -14 11 -19 12 -7 -22 -17 -122 -35 -240
-46 -359 -60 -326 -38 7 4 25 6 39 3 22 -4 25 -2 20 12 -4 10 -1 19 8 22 8 4
12 10 9 16 -3 5 -16 0 -30 -13 l-23 -22 -6 26 c-5 18 -12 24 -23 20 -14 -4
-15 -3 -2 5 10 8 18 8 27 0 10 -8 13 -7 14 3 0 10 2 11 6 2 2 -7 9 -13 14 -13
6 0 8 3 6 8 -3 4 4 16 14 26 17 17 19 18 19 3 0 -9 -4 -17 -10 -17 -5 0 -10
-5 -10 -11 0 -6 7 -8 16 -5 8 3 12 2 9 -4 -6 -10 34 -5 44 6 3 4 -2 5 -11 1
-9 -3 -19 0 -22 8 -4 11 2 13 22 11 15 -2 21 -1 15 1 -7 2 -13 9 -13 14 0 6 4
7 10 4 6 -4 7 1 3 11 -5 15 -7 15 -15 0 -5 -9 -14 -16 -20 -16 -6 0 -3 9 6 19
10 11 25 17 37 14 11 -3 19 0 19 8 0 7 3 10 6 7 3 -4 1 -15 -5 -27z m139 9 c0
-5 -5 -10 -11 -10 -5 0 -7 5 -4 10 3 6 8 10 11 10 2 0 4 -4 4 -10z m335 -8
c-3 -3 -11 0 -18 7 -9 10 -8 11 6 5 10 -3 15 -9 12 -12z m-586 -17 c-10 -10
-18 -11 -29 -4 -13 9 -12 10 3 5 11 -3 20 0 24 10 3 8 8 12 11 9 3 -3 -1 -12
-9 -20z m-632 -44 c51 -15 69 -17 75 -8 5 8 9 7 13 -4 4 -10 16 -15 31 -13 13
1 24 -2 24 -7 0 -14 -28 -11 -107 11 -104 29 -157 51 -142 61 7 4 18 1 26 -7
8 -7 44 -22 80 -33z m1070 13 c-3 -3 -12 -4 -19 -1 -8 3 -5 6 6 6 11 1 17 -2
13 -5z m-884 -61 c-7 -2 -19 -2 -25 0 -7 3 -2 5 12 5 14 0 19 -2 13 -5z m70
-10 c-7 -2 -21 -2 -30 0 -10 3 -4 5 12 5 17 0 24 -2 18 -5z m60 -10 c-7 -2
-19 -2 -25 0 -7 3 -2 5 12 5 14 0 19 -2 13 -5z"/>
<path d="M14240 5460 c0 -5 5 -10 11 -10 5 0 7 5 4 10 -3 6 -8 10 -11 10 -2 0
-4 -4 -4 -10z"/>
<path d="M14215 5430 c3 -5 1 -10 -4 -10 -6 0 -11 -4 -11 -9 0 -6 9 -9 19 -8
16 1 18 5 10 19 -5 10 -12 18 -15 18 -3 0 -2 -4 1 -10z"/>
<path d="M13640 4929 c0 -5 5 -7 10 -4 6 3 10 8 10 11 0 2 -4 4 -10 4 -5 0
-10 -5 -10 -11z"/>
<path d="M11467 3844 c3 -7 9 -14 14 -14 14 0 10 17 -5 23 -10 4 -13 1 -9 -9z"/>
<path d="M11560 3821 c0 -9 30 -24 36 -18 2 1 -6 8 -16 15 -11 7 -20 8 -20 3z"/>
<path d="M11700 3765 c-11 -13 -10 -14 4 -9 9 3 16 10 16 15 0 13 -6 11 -20
-6z"/>
<path d="M11636 3712 c-3 -5 1 -9 9 -9 8 0 12 4 9 9 -3 4 -7 8 -9 8 -2 0 -6
-4 -9 -8z"/>
<path d="M11760 3700 c-12 -7 -10 -9 7 -7 12 0 19 5 17 9 -6 10 -6 10 -24 -2z"/>
<path d="M11859 3693 c-13 -16 -12 -17 4 -4 16 13 21 21 13 21 -2 0 -10 -8
-17 -17z"/>
<path d="M11978 3683 c7 -3 16 -2 19 1 4 3 -2 6 -13 5 -11 0 -14 -3 -6 -6z"/>
<path d="M11995 3631 c-3 -5 -2 -12 3 -15 5 -3 9 1 9 9 0 17 -3 19 -12 6z"/>
<path d="M12055 3630 c4 -6 11 -8 16 -5 14 9 11 15 -7 15 -8 0 -12 -5 -9 -10z"/>
<path d="M12025 3619 c-4 -6 -5 -12 -2 -15 2 -3 7 2 10 11 7 17 1 20 -8 4z"/>
<path d="M11888 3603 c7 -3 16 -2 19 1 4 3 -2 6 -13 5 -11 0 -14 -3 -6 -6z"/>
<path d="M11983 3565 c0 -8 4 -12 9 -9 5 3 6 10 3 15 -9 13 -12 11 -12 -6z"/>
<path d="M11900 3526 c0 -2 8 -10 18 -17 15 -13 16 -12 3 4 -13 16 -21 21 -21
13z"/>
<path d="M12834 3391 c4 -5 1 -12 -4 -14 -6 -3 -5 -4 2 -3 15 3 23 26 8 26 -6
0 -9 -4 -6 -9z"/>
<path d="M15707 7185 c16 -89 6 -256 -21 -359 -99 -373 -306 -643 -692 -904
-11 -7 -5 -6 12 3 29 13 33 13 45 -1 10 -13 10 -19 0 -36 -16 -26 111 61 206
142 132 112 288 311 365 465 102 203 137 400 107 610 -6 42 -14 87 -19 98 -7
15 -8 10 -3 -18z m-624 -1258 c-2 -4 -14 -2 -25 4 -15 8 -17 13 -8 19 14 9 41
-10 33 -23z"/>
<path d="M9070 6837 c0 -106 60 -449 97 -552 14 -38 41 -101 60 -139 33 -66
35 -68 49 -47 10 14 13 32 9 51 -4 17 -4 30 -2 30 3 0 21 -29 41 -64 41 -74
112 -170 126 -172 6 -1 19 -2 30 -3 14 -1 20 -8 20 -25 0 -28 8 -35 44 -38 18
-2 22 -6 15 -14 -7 -8 -6 -15 2 -20 8 -4 9 -3 5 4 -4 7 -5 12 -1 12 3 0 10
-11 15 -25 6 -15 51 -52 122 -98 129 -85 287 -177 303 -177 5 0 -30 23 -79 50
-97 55 -168 105 -262 187 -33 29 -64 51 -67 48 -4 -3 -5 -2 -2 1 2 4 -28 43
-67 88 -132 152 -268 378 -343 571 -35 89 -95 309 -95 346 0 10 -4 19 -10 19
-5 0 -10 -15 -10 -33z"/>
<path d="M9291 6014 c0 -11 3 -14 6 -6 3 7 2 16 -1 19 -3 4 -6 -2 -5 -13z"/>
<path d="M14880 5860 c-9 -6 -10 -10 -3 -10 6 0 15 5 18 10 8 12 4 12 -15 0z"/>
<path d="M14964 5834 c-18 -14 -18 -14 6 -3 31 14 36 19 24 19 -6 0 -19 -7
-30 -16z"/>
<path d="M14880 5790 c-19 -11 -31 -19 -27 -20 11 0 67 29 67 35 0 7 -1 7 -40
-15z"/>
<path d="M17175 13580 c-3 -6 1 -7 9 -4 18 7 21 14 7 14 -6 0 -13 -4 -16 -10z"/>
<path d="M17170 13549 c0 -5 5 -7 10 -4 6 3 10 8 10 11 0 2 -4 4 -10 4 -5 0
-10 -5 -10 -11z"/>
<path d="M7515 3830 c3 -5 11 -10 16 -10 6 0 7 5 4 10 -3 6 -11 10 -16 10 -6
0 -7 -4 -4 -10z"/>
<path d="M7258 3976 c-24 -18 -23 -32 4 -39 18 -5 19 -8 8 -21 -7 -10 -8 -16
-2 -16 6 0 14 10 18 23 13 37 13 46 1 44 -7 -1 -11 4 -9 11 3 15 1 15 -20 -2z
m17 -16 c3 -5 -1 -10 -10 -10 -9 0 -13 5 -10 10 3 6 8 10 10 10 2 0 7 -4 10
-10z"/>
<path d="M7716 3673 c-6 -14 -5 -15 5 -6 7 7 10 15 7 18 -3 3 -9 -2 -12 -12z"/>
<path d="M7792 3035 c-2 -29 15 -43 24 -20 4 9 0 23 -7 31 -13 12 -15 11 -17
-11z"/>
<path d="M7778 3004 c6 -12 8 -24 5 -28 -3 -3 -1 -6 5 -6 21 0 21 17 0 36 -21
19 -21 19 -10 -2z"/>
<path d="M22236 1781 c-3 -5 2 -15 12 -22 15 -13 16 -12 4 3 -10 13 -10 17 0
21 9 4 9 6 1 6 -6 1 -14 -3 -17 -8z"/>
<path d="M22278 1653 c7 -3 16 -2 19 1 4 3 -2 6 -13 5 -11 0 -14 -3 -6 -6z"/>
<path d="M6555 6000 c-3 -5 -1 -10 4 -10 6 0 11 5 11 10 0 6 -2 10 -4 10 -3 0
-8 -4 -11 -10z"/>
<path d="M6850 5893 c0 -7 -7 -13 -15 -13 -8 0 -15 -7 -15 -16 0 -13 3 -14 14
-5 11 9 16 9 22 0 4 -7 3 -9 -2 -6 -6 3 -16 -3 -23 -14 -11 -19 -10 -20 6 -11
11 6 24 7 34 1 12 -6 17 -5 15 4 -3 20 -35 73 -36 60z"/>
<path d="M6909 5828 c13 -18 7 -24 -21 -19 -5 0 -8 -4 -8 -10 0 -5 -5 -7 -10
-4 -6 4 -8 10 -5 15 3 5 1 11 -5 15 -15 9 -12 -31 3 -43 8 -7 20 -4 40 12 27
21 27 23 10 37 -16 13 -17 12 -4 -3z"/>
<path d="M5873 5805 c-150 -12 -153 -12 -208 -48 -56 -38 -150 -146 -137 -158
4 -4 23 -12 43 -18 48 -15 73 -45 94 -111 21 -64 71 -118 130 -139 63 -22 84
-40 106 -90 23 -53 65 -101 89 -101 25 0 60 29 60 50 0 11 -13 50 -29 87 -68
156 -84 200 -88 245 -4 41 -10 50 -39 69 -19 11 -34 25 -34 29 0 5 26 30 57
57 32 26 80 69 108 95 58 55 75 51 -152 33z"/>
<path d="M6587 5792 c-22 -4 -37 -41 -37 -87 0 -42 20 -55 84 -55 46 0 126 25
126 40 0 5 -22 27 -50 50 -50 42 -91 59 -123 52z"/>
<path d="M6830 5781 c-8 -6 -17 -8 -21 -5 -4 2 -3 -12 1 -30 4 -19 3 -39 -1
-43 -5 -5 -11 -19 -13 -30 -4 -16 2 -23 21 -28 31 -7 34 -5 26 23 -5 21 -6 21
-20 5 -8 -10 -13 -13 -10 -8 2 6 7 18 11 29 5 16 9 16 23 5 9 -8 14 -9 10 -3
-6 10 25 28 45 25 14 -1 29 29 23 49 -8 25 -21 26 -37 1 -11 -19 -12 -19 -27
0 -11 13 -20 16 -31 10z m82 -43 c-6 -6 -12 -4 -16 7 -3 9 -2 13 4 10 6 -3 10
0 11 7 0 10 2 10 6 0 3 -8 1 -18 -5 -24z m-32 -14 c0 -2 -7 -4 -15 -4 -8 0
-15 4 -15 10 0 5 7 7 15 4 8 -4 15 -8 15 -10z"/>
<path d="M6865 5659 c-4 -6 -5 -12 -2 -15 2 -3 7 2 10 11 7 17 1 20 -8 4z"/>
<path d="M5352 5608 c-7 -7 -65 -38 -129 -68 l-117 -56 63 -42 c37 -26 71 -42
84 -40 16 2 21 -2 19 -13 -5 -32 26 -28 53 6 46 62 67 155 47 208 -6 14 -10
15 -20 5z m-46 -213 c-1 -8 -5 -17 -8 -21 -5 -4 -4 16 1 34 3 9 9 -1 7 -13z"/>
<path d="M6013 5583 c-5 -12 8 -28 43 -57 79 -65 122 -116 150 -175 15 -31 28
-58 30 -60 2 -2 30 24 64 58 50 51 56 61 38 61 -13 0 -48 26 -89 65 -41 40
-91 76 -130 95 -73 34 -97 37 -106 13z"/>
<path d="M4953 5500 c-32 -19 -123 -143 -123 -167 0 -32 115 -53 185 -33 61
17 73 34 77 112 l3 66 -43 21 c-52 26 -59 26 -99 1z"/>
<path d="M7052 5370 c-20 -9 -22 -14 -16 -47 3 -21 12 -44 19 -51 10 -11 109
-40 139 -42 13 0 0 118 -14 135 -14 17 -91 19 -128 5z"/>
<path d="M5100 5345 c0 -8 4 -15 10 -15 5 0 7 7 4 15 -4 8 -8 15 -10 15 -2 0
-4 -7 -4 -15z"/>
<path d="M5137 5343 c-3 -5 1 -14 9 -21 12 -10 14 -10 14 2 0 17 -16 30 -23
19z"/>
<path d="M5095 5310 c3 -5 8 -10 11 -10 2 0 4 5 4 10 0 6 -5 10 -11 10 -5 0
-7 -4 -4 -10z"/>
<path d="M5120 5310 c0 -5 5 -10 10 -10 6 0 10 5 10 10 0 6 -4 10 -10 10 -5 0
-10 -4 -10 -10z"/>
<path d="M19759 4908 c-18 -24 -48 -59 -67 -80 l-34 -36 53 -31 c58 -33 90
-39 107 -18 6 7 19 41 28 76 14 49 15 69 7 92 -11 30 -6 38 14 18 7 -7 12 -6
16 5 5 13 -2 16 -42 16 -46 0 -51 -3 -82 -42z"/>
<path d="M20005 4928 c11 -6 27 -16 35 -22 9 -6 5 -1 -8 12 -13 12 -28 22 -35
22 -7 0 -3 -6 8 -12z"/>
<path d="M6846 4741 c-3 -5 1 -11 9 -14 9 -4 12 -1 8 9 -6 16 -10 17 -17 5z"/>
<path d="M19126 4688 c-22 -35 -46 -167 -39 -218 8 -64 17 -77 60 -85 74 -15
132 -1 159 40 15 23 16 33 4 83 -23 103 -61 157 -132 187 -36 15 -38 14 -52
-7z"/>
<path d="M4568 4693 c7 -3 16 -2 19 1 4 3 -2 6 -13 5 -11 0 -14 -3 -6 -6z"/>
<path d="M20445 4650 c3 -5 8 -10 11 -10 2 0 4 5 4 10 0 6 -5 10 -11 10 -5 0
-7 -4 -4 -10z"/>
<path d="M20470 4646 c0 -8 7 -16 15 -20 13 -4 14 -2 5 14 -13 23 -20 26 -20
6z"/>
<path d="M4245 4610 c-8 -9 -15 -34 -15 -55 0 -32 7 -45 43 -79 46 -44 143
-100 193 -110 26 -6 32 -3 43 20 14 31 51 180 51 206 0 19 -42 25 -203 31 -80
2 -100 0 -112 -13z"/>
<path d="M19443 4583 c9 -2 23 -2 30 0 6 3 -1 5 -18 5 -16 0 -22 -2 -12 -5z"/>
<path d="M5111 4555 c-55 -47 -44 -55 74 -55 58 0 105 3 105 8 0 12 -83 59
-116 66 -25 6 -38 2 -63 -19z"/>
<path d="M22007 4518 c-54 -72 -60 -87 -55 -132 12 -103 148 -204 202 -150 21
20 20 32 -5 101 -20 53 -106 213 -114 213 -2 0 -15 -15 -28 -32z"/>
<path d="M5942 4450 c-12 -5 -49 -28 -81 -50 -55 -37 -68 -54 -178 -234 -65
-107 -119 -193 -120 -192 -2 1 6 32 16 67 10 36 24 97 31 136 15 82 6 119 -38
153 -36 29 -80 25 -142 -12 -48 -30 -59 -43 -101 -125 -26 -51 -49 -110 -51
-133 -2 -22 -2 -40 0 -40 2 0 18 11 36 25 18 14 36 25 41 25 19 0 -166 -131
-620 -440 -143 -97 -377 -259 -520 -358 -232 -162 -261 -180 -272 -165 -23 30
-15 92 18 150 39 68 31 76 -60 69 -96 -8 -96 -9 -96 -189 0 -90 -6 -177 -14
-214 -16 -72 -9 -120 20 -151 26 -28 60 -28 179 3 52 14 105 25 117 25 49 0
34 -87 -21 -123 -53 -35 -105 -41 -200 -24 -49 10 -103 25 -120 35 -46 26 -76
93 -76 169 l0 63 -86 -62 c-48 -35 -90 -62 -95 -60 -5 1 -10 -4 -10 -10 -1 -7
-5 5 -9 27 l-7 40 -2 -47 c-1 -45 -3 -48 -63 -94 -35 -26 -81 -64 -104 -83
-22 -20 -55 -44 -73 -53 -31 -17 -32 -18 -16 -47 8 -17 24 -35 34 -41 32 -16
106 -12 166 11 49 18 59 27 78 65 25 52 50 62 108 45 49 -15 74 -42 88 -94 5
-23 23 -61 38 -85 l28 -43 8 63 c9 71 51 165 84 186 21 13 24 12 43 -20 11
-18 21 -37 23 -42 2 -5 23 -2 47 8 36 14 291 86 306 86 13 0 1 -20 -17 -25
-11 -4 -18 -13 -15 -20 2 -7 -2 -16 -11 -20 -12 -4 -13 -9 -6 -16 15 -15 33
-3 33 21 0 10 7 21 16 24 12 5 15 2 10 -10 -5 -14 -4 -15 8 -5 11 9 13 6 11
-19 -3 -38 9 -30 36 22 11 22 36 61 55 88 19 26 34 52 34 57 0 5 37 44 82 87
69 67 117 103 244 183 16 10 14 10 -13 3 -25 -6 -33 -5 -38 8 -5 14 -7 14 -15
2 -8 -12 -10 -13 -10 -1 0 11 -5 9 -21 -5 -17 -15 -15 -7 11 41 49 90 84 138
139 187 41 37 97 65 108 54 2 -1 -5 -53 -14 -114 -8 -62 -13 -115 -10 -118 2
-3 31 1 63 9 33 8 71 18 86 21 20 4 30 16 38 43 48 150 153 269 296 339 91 44
93 47 151 132 32 48 102 141 154 207 124 155 180 238 222 327 57 120 97 277
72 284 -5 1 -20 -1 -33 -6z m-622 -859 c0 -14 -18 -23 -31 -15 -8 4 -7 9 2 15
18 11 29 11 29 0z m-23 -88 c-3 -10 -5 -2 -5 17 0 19 2 27 5 18 2 -10 2 -26 0
-35z m-950 -819 c-3 -3 -12 -4 -19 -1 -8 3 -5 6 6 6 11 1 17 -2 13 -5z m-37
-14 c0 -5 -2 -10 -4 -10 -3 0 -8 5 -11 10 -3 6 -1 10 4 10 6 0 11 -4 11 -10z"/>
<path d="M20182 4298 c0 -13 -10 -52 -22 -87 -25 -76 -46 -275 -36 -344 8 -54
17 -60 102 -71 43 -5 55 -3 77 15 34 26 36 77 6 191 -11 44 -17 83 -14 86 3 3
30 -19 59 -49 43 -44 65 -59 113 -73 99 -30 120 -17 167 98 24 59 24 60 6 96
-24 48 -84 100 -114 100 -14 0 -47 -18 -75 -40 -28 -22 -52 -40 -55 -40 -2 0
-19 14 -37 32 -41 38 -147 108 -164 108 -7 0 -13 -10 -13 -22z"/>
<path d="M21270 4198 c-50 -26 -75 -62 -96 -140 -18 -70 -18 -132 1 -148 17
-14 161 -8 220 8 40 11 37 31 -20 148 -25 50 -45 105 -45 122 0 38 -3 39 -60
10z"/>
<path d="M19570 4150 c-6 -11 -8 -20 -6 -20 3 0 10 9 16 20 6 11 8 20 6 20 -3
0 -10 -9 -16 -20z"/>
<path d="M20877 4090 c-21 -30 -22 -76 -2 -84 9 -3 15 0 15 9 0 8 6 12 13 10
17 -7 46 15 30 22 -8 3 -11 14 -6 30 5 21 3 25 -10 20 -9 -3 -17 -1 -19 5 -3
7 -12 1 -21 -12z"/>
<path d="M3978 3957 c-66 -21 -81 -41 -76 -100 3 -29 7 -58 9 -66 3 -9 -21
-30 -62 -55 -36 -23 -90 -58 -119 -80 l-53 -38 36 -13 c21 -7 62 -37 92 -66
93 -90 188 -145 287 -166 41 -9 49 -8 64 8 39 43 57 154 29 182 -8 8 -58 25
-112 38 -54 13 -100 24 -102 26 -11 8 30 38 86 63 55 25 66 35 83 73 24 54 15
96 -33 159 -37 48 -65 56 -129 35z"/>
<path d="M22186 3951 c-7 -11 10 -149 23 -184 21 -55 149 -153 262 -200 33
-14 40 -13 82 5 l47 20 -23 32 c-12 17 -48 62 -79 99 -32 39 -64 89 -73 116
-15 46 -19 50 -93 85 -75 35 -135 46 -146 27z"/>
<path d="M5797 3833 c-106 -120 -199 -212 -250 -248 l-28 -20 113 3 c62 2 116
7 119 10 3 4 16 34 29 67 13 33 48 114 77 179 29 66 51 121 49 123 -2 2 -51
-49 -109 -114z"/>
<path d="M2971 3577 c-15 -19 43 -114 88 -144 43 -29 63 -29 97 1 l28 23 -37
12 c-24 8 -48 28 -72 61 -44 60 -79 76 -104 47z"/>
<path d="M6031 3540 c-23 -5 -71 -25 -106 -44 l-63 -34 -43 16 c-69 26 -267
23 -340 -4 -160 -60 -285 -197 -330 -359 l-16 -60 -64 -7 c-433 -48 -785 -487
-739 -921 l9 -88 -40 -64 c-60 -95 -92 -193 -97 -300 -8 -160 40 -287 148
-396 108 -109 218 -146 404 -137 89 5 122 12 236 51 122 43 135 45 159 32 14
-8 78 -62 141 -121 89 -82 121 -120 142 -164 16 -32 48 -76 73 -99 45 -41 135
-91 165 -91 8 0 32 -27 53 -60 48 -74 164 -184 245 -234 281 -170 653 -148
961 58 312 209 472 475 488 811 12 257 -68 459 -239 602 -34 29 -70 56 -80 59
-10 3 -20 17 -23 32 -29 140 -88 213 -203 249 l-53 17 -150 223 -149 223 11
93 c14 111 6 289 -17 372 -39 146 -149 283 -258 324 -69 25 -162 34 -225 21z
m207 -100 c34 -15 70 -42 103 -78 95 -104 119 -183 120 -387 0 -77 -5 -164
-11 -194 -5 -29 -10 -57 -10 -62 0 -4 50 -82 110 -174 61 -91 110 -168 110
-170 0 -3 -31 -5 -68 -5 -157 0 -367 -120 -584 -333 -229 -225 -443 -566 -532
-848 l-32 -99 -109 110 -110 110 23 68 c101 293 402 710 680 943 84 70 142
111 322 228 l35 23 -32 -6 c-18 -3 -46 -9 -61 -12 -28 -6 -28 -5 -51 83 -25
98 -100 262 -155 338 -20 27 -36 44 -36 38 0 -7 19 -77 41 -155 33 -113 42
-165 46 -248 l5 -106 -78 -50 c-44 -28 -114 -78 -156 -113 l-77 -62 -33 17
c-97 49 -201 136 -288 239 -36 41 -66 72 -68 67 -5 -15 36 -101 84 -175 51
-79 106 -149 167 -213 l39 -42 -77 -88 c-42 -49 -115 -140 -163 -201 -71 -92
-92 -113 -113 -113 -38 0 -303 74 -386 109 -40 16 -99 45 -132 65 -34 19 -61
32 -61 27 0 -5 38 -45 84 -89 70 -67 102 -89 188 -130 57 -27 138 -62 181 -77
42 -15 77 -32 77 -37 0 -5 -7 -23 -16 -40 -9 -18 -38 -86 -65 -152 l-48 -121
-78 -33 c-266 -112 -468 -101 -612 33 -155 145 -172 407 -40 611 l40 62 -11
86 c-56 420 295 856 710 883 l89 6 31 98 c53 172 154 282 298 326 81 25 220
22 291 -5 l54 -21 42 29 c40 27 95 52 140 64 40 10 132 -2 183 -24z m617
-1421 c133 -45 209 -91 301 -184 135 -135 188 -270 187 -475 -2 -261 -92 -473
-274 -644 -108 -101 -187 -157 -302 -211 -141 -67 -228 -88 -372 -88 -134 -1
-202 14 -320 69 -150 70 -261 179 -334 329 -60 120 -74 188 -68 325 2 63 7
122 11 131 4 9 100 86 214 172 114 85 263 207 332 272 154 144 340 298 394
325 51 26 104 21 231 -21z"/>
<path d="M6459 1866 c-119 -32 -201 -138 -202 -258 l0 -63 -86 0 c-97 0 -128
-12 -186 -72 -133 -137 -36 -362 164 -380 121 -11 239 80 266 204 6 29 9 31
31 22 14 -5 51 -9 82 -9 186 0 319 199 256 382 -43 127 -196 209 -325 174z
m232 -159 c53 -87 45 -180 -24 -254 -91 -99 -239 -75 -302 50 -40 81 -31 161
24 211 21 19 21 19 21 -3 0 -52 56 -111 105 -111 61 0 134 83 120 137 -5 22
-4 23 15 13 12 -6 30 -26 41 -43z m-582 -263 c-22 -58 35 -134 101 -134 32 0
85 32 101 62 l12 22 9 -24 c21 -58 -20 -148 -83 -180 -111 -57 -239 11 -239
128 0 56 21 95 67 127 21 14 39 25 40 25 1 0 -2 -12 -8 -26z"/>
<path d="M7093 1289 c-6 -6 -9 -35 -6 -74 7 -80 -18 -193 -57 -262 -59 -103
-164 -183 -300 -229 -83 -28 -279 -26 -380 4 -74 22 -99 19 -87 -11 6 -17 72
-41 172 -62 378 -80 733 199 701 550 -7 72 -23 104 -43 84z"/>
<path d="M19310 3238 c-77 -11 -186 -46 -289 -94 l-76 -35 -110 11 c-94 10
-121 10 -185 -4 -188 -40 -342 -175 -401 -354 -18 -54 -21 -80 -17 -161 8
-158 66 -267 232 -439 l89 -92 -31 -68 c-17 -37 -45 -120 -63 -185 -28 -103
-37 -124 -71 -160 -22 -23 -51 -64 -66 -92 -22 -43 -26 -63 -27 -140 0 -84 -2
-94 -32 -140 -83 -130 -117 -253 -116 -420 1 -143 23 -238 83 -364 98 -205
264 -365 485 -467 70 -32 79 -34 182 -33 59 1 99 3 88 6 -55 13 -178 59 -240
91 -161 80 -318 212 -399 336 -151 229 -166 534 -38 781 56 108 171 218 292
277 52 26 114 52 138 58 43 11 45 10 190 -66 375 -196 456 -237 592 -294 241
-102 370 -183 398 -250 23 -54 28 -295 8 -390 -41 -196 -176 -372 -356 -463
-53 -27 -125 -57 -160 -67 l-65 -19 108 0 c100 -1 112 1 165 28 185 93 320
259 371 456 12 43 28 83 37 88 39 22 87 74 110 120 25 48 63 198 64 246 0 22
179 330 236 407 19 27 36 35 96 48 169 38 329 126 436 240 158 169 145 403
-30 579 -38 37 -68 72 -68 79 0 6 -7 41 -16 77 -61 250 -285 411 -570 411
l-92 0 -28 48 c-49 85 -117 163 -198 228 -190 151 -421 216 -656 182z m296
-93 c226 -58 398 -190 498 -383 38 -75 51 -92 64 -87 10 4 55 9 102 12 158 9
293 -41 395 -148 68 -71 115 -166 122 -249 5 -54 9 -62 37 -79 49 -31 102 -91
132 -151 22 -44 29 -73 32 -141 7 -134 -23 -198 -135 -291 -98 -82 -226 -139
-376 -168 -68 -14 -76 -22 -195 -223 -41 -70 -78 -127 -82 -127 -3 0 -16 20
-28 45 -29 61 -156 192 -245 253 -234 161 -586 283 -937 323 -114 13 -374 7
-427 -9 -18 -6 -33 -9 -33 -7 0 3 21 65 46 138 l45 134 52 7 c95 11 328 6 436
-9 361 -53 675 -173 1001 -384 51 -33 96 -59 98 -56 2 2 -9 22 -26 43 l-31 39
62 45 c34 25 90 75 123 110 60 62 161 205 151 214 -2 3 -40 -26 -83 -62 -91
-78 -181 -138 -275 -184 l-66 -33 -57 42 c-32 24 -106 70 -167 103 -60 33
-109 63 -109 67 0 3 14 60 30 126 21 87 45 150 85 229 30 60 53 111 50 114 -3
3 -28 -16 -56 -44 -58 -56 -164 -210 -206 -299 -16 -33 -32 -65 -36 -71 -5 -8
-33 -3 -94 18 -49 16 -157 47 -242 69 -85 22 -157 42 -161 44 -4 3 -18 58 -31
122 -19 97 -23 152 -23 305 -1 104 -4 188 -7 188 -4 0 -18 -29 -32 -63 -41
-101 -57 -212 -57 -382 l0 -153 -155 -7 c-182 -8 -170 -13 -285 104 -145 147
-206 273 -198 414 9 175 148 337 328 383 51 13 92 15 190 11 l124 -5 81 38
c196 94 395 120 571 75z"/>
<path d="M3537 3143 c-33 -4 -40 -10 -61 -51 -29 -59 -41 -108 -27 -117 7 -3
11 2 11 14 0 11 7 39 16 61 16 39 36 51 50 28 5 -7 2 -8 -7 -3 -11 6 -11 5 -2
-5 15 -17 5 -40 -17 -40 -11 0 -22 -5 -26 -12 -5 -7 -2 -9 8 -5 9 3 20 1 26
-5 8 -8 14 -4 21 15 6 15 17 27 25 27 20 0 29 -17 15 -26 -7 -4 -9 -3 -6 3 3
5 -1 10 -9 10 -10 0 -11 -4 -4 -11 13 -13 40 -17 40 -5 0 5 5 9 11 9 5 0 7 -5
3 -11 -4 -7 0 -9 12 -5 22 6 38 -2 47 -24 5 -13 6 -12 6 1 2 45 -58 161 -82
157 -7 -1 -29 -3 -50 -5z"/>
<path d="M3336 2988 c-27 -88 -44 -153 -41 -156 2 -3 22 10 45 28 42 33 50 59
25 80 -13 11 -15 10 -9 -6 5 -17 5 -18 -6 -2 -8 13 -8 23 0 37 13 25 13 31 0
31 -6 0 -12 -6 -14 -12z"/>
<path d="M22827 2903 c-22 -98 -68 -197 -113 -244 l-36 -36 25 -7 c20 -5 89
-33 130 -54 4 -2 7 8 7 22 0 15 12 55 26 89 38 89 44 186 14 255 -12 29 -25
52 -29 52 -3 0 -14 -35 -24 -77z"/>
<path d="M2850 2710 c0 -8 22 -30 30 -30 3 0 6 8 7 18 1 11 -5 18 -18 18 -10
0 -19 -3 -19 -6z"/>
<path d="M21406 2671 c-4 -6 -4 -11 1 -11 4 0 19 -16 32 -36 40 -58 107 -107
144 -106 30 1 205 29 236 38 9 3 -3 16 -30 34 -24 17 -59 41 -78 55 -31 23
-43 25 -145 25 -61 0 -121 3 -132 6 -12 3 -25 1 -28 -5z"/>
<path d="M4258 2581 c-16 -18 -15 -20 2 -18 11 1 18 8 17 19 -1 10 -2 18 -2
18 0 0 -8 -9 -17 -19z"/>
<path d="M4295 2549 c-4 -6 -5 -12 -2 -15 2 -3 7 2 10 11 7 17 1 20 -8 4z"/>
<path d="M22514 2543 c4 -24 -19 -33 -27 -10 -3 8 -18 -1 -42 -24 l-37 -36 62
-11 c35 -7 66 -9 71 -7 11 8 7 48 -6 65 -7 8 -15 22 -19 30 -3 8 -4 5 -2 -7z
m23 -63 c1 -12 -4 -20 -13 -20 -12 0 -12 4 -4 20 6 11 12 20 13 20 2 0 3 -9 4
-20z"/>
<path d="M20940 2337 c0 -6 23 -32 51 -56 27 -23 61 -60 75 -81 24 -37 27 -38
57 -28 l31 11 -56 52 c-65 60 -158 121 -158 102z"/>
<path d="M8331 2117 c-44 -22 -65 -62 -69 -131 l-4 -64 -41 -5 c-54 -7 -88
-35 -111 -89 -25 -60 -16 -110 29 -155 18 -18 42 -33 52 -33 17 0 19 -6 15
-65 -4 -60 6 -95 27 -95 3 0 6 29 6 64 0 51 5 71 22 94 12 16 19 32 16 36 -4
3 -26 6 -49 6 -34 0 -47 5 -63 26 -31 40 -28 98 7 134 26 26 85 50 123 50 14
0 16 8 12 43 -10 83 44 156 103 141 15 -4 47 -27 71 -52 l43 -46 28 26 c54 51
106 62 135 30 22 -24 21 -30 -4 -114 -14 -45 -20 -85 -17 -113 l5 -42 -56 -6
c-55 -5 -111 -24 -111 -37 0 -4 25 -7 56 -6 50 0 59 -3 80 -27 27 -32 32 -84
9 -94 -9 -3 -35 5 -59 18 -38 20 -48 21 -70 11 -36 -16 -33 -29 7 -24 30 3 68
-19 78 -46 2 -5 22 -13 45 -16 85 -15 114 56 74 185 l-23 73 21 96 c28 124 28
143 -6 181 -36 40 -84 42 -146 5 -30 -18 -47 -22 -52 -15 -3 6 -27 24 -52 40
-49 31 -92 36 -131 16z"/>
<path d="M9476 1835 c-30 -31 -13 -68 29 -63 35 4 54 31 39 56 -15 23 -48 27
-68 7z"/>
<path d="M8392 1481 c-39 -19 -89 -56 -132 -98 -65 -64 -69 -70 -64 -103 l6
-35 -64 -1 c-130 -1 -238 -98 -269 -244 -10 -48 -12 -50 -37 -42 -15 4 -54 7
-88 7 -47 -1 -70 -7 -105 -27 -49 -29 -113 -94 -131 -134 -9 -18 -19 -24 -44
-24 -23 0 -57 -17 -118 -58 -154 -105 -206 -150 -206 -177 0 -21 196 -421 252
-512 18 -30 24 -33 72 -33 48 0 56 4 109 51 67 60 70 74 27 161 -33 67 -33 79
3 102 22 15 27 14 81 -15 107 -58 219 -36 310 61 45 48 76 122 76 181 l0 27
48 -15 c117 -36 250 34 309 164 20 43 28 51 41 44 56 -31 256 121 310 237 36
76 38 207 4 292 -28 69 -84 144 -140 184 -37 26 -54 31 -115 34 -63 3 -80 -1
-135 -27z m199 -67 c14 -7 41 -30 59 -51 89 -101 112 -249 56 -351 -17 -30
-50 -70 -75 -91 -46 -38 -125 -91 -136 -91 -11 0 -226 454 -221 467 9 23 140
113 186 128 47 15 88 11 131 -11z m-377 -259 c88 -42 157 -158 164 -276 5 -93
-8 -138 -57 -192 -106 -117 -248 -80 -332 86 -61 118 -60 232 2 317 51 71 150
99 223 65z m-390 -275 c73 -27 158 -157 172 -262 16 -112 -29 -208 -118 -252
-63 -31 -98 -33 -155 -5 -117 57 -197 267 -149 392 18 47 63 97 111 121 34 18
101 21 139 6z m-346 -230 l21 -49 -65 -48 c-35 -26 -64 -48 -64 -50 0 -2 9
-22 20 -44 20 -39 21 -39 48 -25 15 8 41 24 57 35 42 29 49 27 67 -23 l17 -45
-55 -41 c-30 -22 -54 -43 -54 -45 0 -3 19 -43 43 -91 l42 -86 -45 -39 c-24
-21 -48 -35 -51 -31 -4 4 -60 110 -124 235 -111 216 -116 229 -99 242 11 7 60
44 109 83 50 39 95 71 101 71 6 1 21 -21 32 -49z"/>
<path d="M8429 1291 l-24 -20 67 -135 c38 -75 72 -136 76 -136 11 0 46 39 61
67 41 81 -41 243 -124 243 -18 0 -43 -9 -56 -19z"/>
<path d="M8086 1029 c-22 -17 -26 -28 -26 -69 0 -84 64 -197 122 -215 25 -9
66 19 79 53 23 61 -30 194 -94 232 -40 25 -48 25 -81 -1z"/>
<path d="M7694 749 c-61 -68 33 -279 125 -279 68 0 86 93 37 193 -47 97 -118
134 -162 86z"/>
<path d="M18930 1369 c-111 -46 -172 -193 -126 -303 46 -111 178 -176 289
-142 l47 14 0 -51 c0 -66 29 -126 87 -176 113 -100 273 -93 394 16 61 56 83
105 84 188 0 59 -5 78 -30 124 -72 130 -242 187 -371 124 l-40 -19 -12 50
c-14 58 -51 108 -111 151 -36 25 -53 30 -114 32 -40 2 -83 -2 -97 -8z m166
-94 l27 -17 -30 -13 c-104 -44 -91 -180 20 -203 l42 -8 -32 -17 c-56 -30 -112
-31 -163 -5 -59 31 -90 77 -90 138 0 117 130 188 226 125z m402 -183 c8 -6 3
-15 -19 -31 -87 -65 -60 -187 47 -207 18 -3 47 -1 64 4 l30 11 -15 -37 c-21
-48 -39 -67 -89 -92 -131 -63 -296 28 -296 164 0 55 47 135 98 167 38 24 57
29 106 29 34 0 67 -4 74 -8z"/>
<path d="M9057 1307 c-3 -8 1 -14 8 -14 7 0 11 6 8 14 -3 7 -6 13 -8 13 -2 0
-5 -6 -8 -13z"/>
<path d="M9100 1305 c7 -8 16 -12 21 -9 13 8 1 24 -18 24 -13 0 -13 -3 -3 -15z"/>
<path d="M9010 1299 c0 -5 5 -7 10 -4 6 3 10 8 10 11 0 2 -4 4 -10 4 -5 0 -10
-5 -10 -11z"/>
<path d="M8862 1010 c0 -14 2 -19 5 -12 2 6 2 18 0 25 -3 6 -5 1 -5 -13z"/>
<path d="M16802 873 c-81 -105 -243 -354 -236 -365 4 -7 4 -10 -1 -6 -8 7 -24
-12 -71 -87 -17 -27 -17 -29 -1 -16 17 13 18 12 13 -14 -5 -26 -4 -27 14 -10
17 16 18 15 25 -14 6 -29 14 -35 41 -32 6 1 17 -24 24 -55 11 -43 11 -65 3
-97 -14 -50 -16 -47 92 -81 44 -14 106 -41 139 -61 l58 -35 146 0 c172 0 180
-15 -78 135 -197 114 -252 150 -269 177 -8 13 2 25 60 67 82 60 81 48 7 217
-26 62 -48 119 -48 128 0 27 45 66 68 59 13 -3 24 1 30 14 9 17 23 113 17 113
-2 0 -16 -17 -33 -37z m-140 -370 c10 -9 18 -21 18 -27 0 -6 -7 -3 -15 8 -8
10 -29 22 -47 26 l-33 8 29 1 c16 1 38 -6 48 -16z"/>
<path d="M18497 804 c-14 -14 -7 -133 13 -208 72 -281 314 -470 581 -453 129
8 289 70 289 112 0 22 -24 19 -80 -10 -199 -101 -430 -56 -597 115 -83 84
-138 203 -163 350 -13 73 -29 108 -43 94z"/>
<path d="M17148 713 c-80 -137 -191 -266 -326 -376 -18 -15 -31 -31 -28 -36 5
-8 115 -74 331 -199 39 -22 87 -54 109 -71 l39 -31 609 0 608 0 -6 28 c-17 70
-35 84 -276 212 -257 136 -559 300 -830 451 -97 55 -178 99 -181 99 -2 0 -25
-35 -49 -77z"/>
<path d="M6980 433 c-14 -10 -91 -71 -171 -138 -80 -66 -193 -158 -250 -205
l-104 -85 399 -3 c220 -1 401 0 403 2 12 11 -178 396 -213 431 -20 19 -34 19
-64 -2z"/>
<path d="M21866 316 c5 -28 -14 -46 -27 -25 -5 8 -9 10 -9 4 1 -14 23 -41 40
-48 9 -3 10 -6 3 -6 -7 -1 -13 -6 -13 -12 0 -5 5 -7 10 -4 6 3 10 0 10 -8 0
-19 39 -11 47 9 3 8 8 12 12 10 4 -3 7 7 8 22 1 23 1 24 -6 7 l-8 -20 -5 20
c-5 16 -6 14 -7 -7 0 -15 -6 -30 -13 -34 -8 -5 -9 -2 -5 9 3 9 3 16 -1 15 -12
-2 -42 14 -42 23 0 5 6 9 13 9 17 0 19 36 2 50 -11 9 -13 7 -9 -14z"/>
<path d="M16580 271 c0 -6 4 -13 10 -16 6 -3 7 1 4 9 -7 18 -14 21 -14 7z"/>
<path d="M16547 248 c6 -7 9 -21 8 -30 -4 -24 49 -17 54 8 3 16 1 16 -12 5
-13 -10 -18 -9 -29 8 -7 12 -17 21 -22 21 -4 0 -4 -6 1 -12z"/>
<path d="M21791 246 c-9 -11 -9 -16 1 -22 7 -4 10 -4 6 1 -4 4 -3 14 3 22 6 7
9 13 6 13 -2 0 -10 -6 -16 -14z"/>
</g>
</svg>
